STARTFONT 2.1
FONT -Monotype-Plantin-Regular-I-Normal--50-360-100-100-P-308-iso8859-5
SIZE 36 100 100
FONTBOUNDINGBOX 66 57 -8 -13

STARTPROPERTIES 24
FOUNDRY "Monotype"
FAMILY_NAME "Plantin"
WEIGHT_NAME "Regular"
SLANT "I"
SETWIDTH_NAME "Normal"
ADD_STYLE_NAME ""
PIXEL_SIZE 50
POINT_SIZE 360
RESOLUTION_X 100
RESOLUTION_Y 100
SPACING "P"
AVERAGE_WIDTH 308
CHARSET_REGISTRY "iso8859"
CHARSET_ENCODING "5"
FACE_NAME "Plantin Inclined ISO Latin Cyrillic"
_DEC_DEVICE_FONTNAMES "PS=plantin-in-latcyrillic"
COPYRIGHT "Copyright (c) 1993 Monotype Typography Ltd."
CAP_HEIGHT 40
X_HEIGHT 26
WEIGHT 10
QUAD_WIDTH 33
DEFAULT_CHAR 160
FONT_DESCENT 14
FONT_ASCENT 45
ENDPROPERTIES

CHARS 191

STARTCHAR space
ENCODING 32
SWIDTH 250 0
DWIDTH 13 0
BBX 0 0 0 0
BITMAP
ENDCHAR

STARTCHAR exclam
ENCODING 33
SWIDTH 312 0
DWIDTH 16 0
BBX 19 35 0 -1
BITMAP
000F80
000F80
001F80
001F00
001F00
001F00
001E00
003E00
003E00
003C00
003C00
007800
007800
007800
007000
007000
00E000
00E000
00E000
00C000
01C000
018000
018000
018000
030000
000000
000000
000000
000000
1E0000
3F0000
3F0000
3F0000
3F0000
1E0000
ENDCHAR

STARTCHAR quotedbl
ENCODING 34
SWIDTH 417 0
DWIDTH 21 0
BBX 18 14 10 20
BITMAP
0E0700
1F0F80
1F0F80
1E0F00
3E1F00
3E1F00
3C1E00
3C1E00
381C00
381C00
301800
301800
203000
603000
ENDCHAR

STARTCHAR numbersign
ENCODING 35
SWIDTH 500 0
DWIDTH 25 0
BBX 27 34 -1 0
BITMAP
00180600
00180600
00300600
00300600
00300C00
00300C00
00300C00
00600C00
00601800
00601800
00601800
3FFFFF80
3FFFFF80
00C03000
00C03000
00C03000
01C03000
01803000
01806000
01806000
01806000
3FFFFF80
3FFFFF80
0300C000
0300C000
0300C000
0600C000
0600C000
06018000
06018000
06018000
0C018000
0C018000
0C030000
ENDCHAR

STARTCHAR dollar
ENCODING 36
SWIDTH 490 0
DWIDTH 24 0
BBX 27 40 0 -5
BITMAP
00008800
00008800
0003F800
000FFE00
001D1F00
00391300
00731380
00622380
00E22780
00E22780
00F42300
00F44000
00FC4000
007C4000
007C8000
003E8000
001F8000
001F8000
001FC000
0017E000
0013E000
0023F000
0022F000
0022F000
00227800
08447800
1C447800
3C447800
3CC47000
38887000
3888E000
1C89C000
1F1F8000
0FFF0000
03FC0000
01100000
02200000
02200000
02200000
02200000
ENDCHAR

STARTCHAR percent
ENCODING 37
SWIDTH 729 0
DWIDTH 36 0
BBX 39 37 -1 -2
BITMAP
0070000038
01FC000070
078E0000E0
0F060001C0
0E07000180
1E07000300
1C07000600
1C07000C00
3C07001C00
3C0F003800
380F007000
380F00E000
380E01C000
381E018000
381C030000
183C060000
1C780C0000
0FE0180000
0380380000
0000700380
0000E00FE0
0001C03C70
0003807830
0003007038
000600F038
000C00E038
001801E038
003801E038
007001C078
00E001C078
01C001C070
038001C0F0
070001C0E0
060000C1E0
0C0000E3C0
1800007F80
3000001C00
ENDCHAR

STARTCHAR ampersand
ENCODING 38
SWIDTH 948 0
DWIDTH 47 0
BBX 47 36 3 -1
BITMAP
0000FF000000
0007FFC00000
000F83E00000
001E01F00000
003C01F00000
007800F00000
007800E00000
00F000000000
00F000000070
00F8000000F8
00F8000000FC
00FE000000FC
007FC07F001C
007F81FFC00C
01F003FFF00C
03C00787F80C
07000601FF18
0E000E00FFF8
1E000C007FF0
3C000C0027C0
3C000E003000
3C000F803000
3C000FC03000
7C0007C03000
7C0003C03000
7C0001803000
7E0000006000
3E0000006000
3F000000C000
1F800001C000
1FC000078000
0FF0001F0000
07FF01FE0000
03FFFFF80000
00FFFFE00000
001FFF000000
ENDCHAR

STARTCHAR quoteright
ENCODING 39
SWIDTH 313 0
DWIDTH 16 0
BBX 13 15 7 20
BITMAP
0300
0FC0
0FC0
0FE0
0FE0
03E0
01E0
00E0
00E0
01C0
0180
0700
1E00
7800
4000
ENDCHAR

STARTCHAR parenleft
ENCODING 40
SWIDTH 448 0
DWIDTH 22 0
BBX 25 43 5 -9
BITMAP
00000E00
00003F00
00007C00
0001F000
0003C000
00078000
001F0000
003C0000
00780000
00700000
00E00000
01E00000
03C00000
03800000
07800000
07000000
0F000000
0E000000
1E000000
1E000000
1C000000
1C000000
3C000000
3C000000
38000000
38000000
38000000
38000000
38000000
38000000
38000000
38000000
1C000000
1C000000
1C000000
0E000000
0E000000
0F000000
07000000
03800000
03C00000
01C00000
00C00000
ENDCHAR

STARTCHAR parenright
ENCODING 41
SWIDTH 437 0
DWIDTH 22 0
BBX 25 43 -7 -9
BITMAP
00018000
0001C000
0000E000
0000F000
00007000
00003800
00003800
00001C00
00001C00
00001C00
00000E00
00000E00
00000E00
00000E00
00000E00
00000E00
00000E00
00000E00
00000E00
00000E00
00001E00
00001C00
00001C00
00003C00
00003C00
00003800
00007800
00007000
0000F000
0000E000
0001E000
0003C000
00078000
00070000
000F0000
003C0000
00780000
00F00000
03E00000
07C00000
1F000000
3C000000
38000000
ENDCHAR

STARTCHAR asterisk
ENCODING 42
SWIDTH 521 0
DWIDTH 26 0
BBX 25 22 6 15
BITMAP
00030000
00060000
00060000
000E0000
000E0000
3C1E0000
1FDE0000
0FFE0000
07FFFE00
01FFFE00
00FFF800
00FFE000
01FF0000
03FF0000
07FF0000
0FCF0000
1E0F0000
18078000
00038000
00038000
00018000
00008000
ENDCHAR

STARTCHAR plus
ENCODING 43
SWIDTH 667 0
DWIDTH 33 0
BBX 30 26 2 3
BITMAP
00078000
00078000
00078000
00078000
00078000
00078000
00078000
00078000
00078000
00078000
00078000
3FFFFFF0
3FFFFFF0
3FFFFFF0
3FFFFFF0
00078000
00078000
00078000
00078000
00078000
00078000
00078000
00078000
00078000
00078000
00078000
ENDCHAR

STARTCHAR comma
ENCODING 44
SWIDTH 313 0
DWIDTH 16 0
BBX 14 15 -2 -8
BITMAP
03E0
07F0
07F0
07F8
03F8
01F8
0078
0070
0070
0060
00E0
01C0
0F80
7E00
6000
ENDCHAR

STARTCHAR minus
ENCODING 45
SWIDTH 667 0
DWIDTH 33 0
BBX 30 4 2 14
BITMAP
7FFFFFF0
7FFFFFF0
7FFFFFF0
7FFFFFF0
ENDCHAR

STARTCHAR period
ENCODING 46
SWIDTH 312 0
DWIDTH 16 0
BBX 10 6 0 -1
BITMAP
1E00
3F00
3F00
3F00
3F00
1E00
ENDCHAR

STARTCHAR slash
ENCODING 47
SWIDTH 281 0
DWIDTH 14 0
BBX 24 36 -3 -1
BITMAP
00000C
000018
000018
000030
000030
000060
000060
0000C0
0000C0
000180
000180
000300
000300
000600
000600
000C00
001C00
001800
003800
003000
006000
006000
00C000
00C000
018000
018000
030000
030000
060000
060000
0C0000
0C0000
180000
180000
300000
700000
ENDCHAR

STARTCHAR zero
ENCODING 48
SWIDTH 521 0
DWIDTH 26 0
BBX 25 35 3 -1
BITMAP
0003C000
001FF000
003C3800
00701C00
00F01E00
01E00E00
03C00E00
07C00F00
07800F00
0F800F00
0F800F00
1F000F00
1F000F00
1F000F00
3E001F00
3E001F00
3E001F00
3E001E00
3C003E00
7C003E00
7C003E00
7C007C00
78007C00
78007C00
7800F800
7800F800
7800F000
3801E000
3801E000
3803C000
1C078000
1C070000
0E1E0000
07F80000
01E00000
ENDCHAR

STARTCHAR one
ENCODING 49
SWIDTH 521 0
DWIDTH 26 0
BBX 21 34 3 0
BITMAP
0000E0
0001E0
0003E0
000FC0
007FC0
00FFC0
000F80
000780
000780
000F80
000F00
000F00
000F00
001F00
001E00
001E00
001E00
003E00
003C00
003C00
007C00
007C00
007800
007800
00F800
00F000
00F000
00F000
01F000
01F000
03F000
07F000
3FFE00
3FFE00
ENDCHAR

STARTCHAR two
ENCODING 50
SWIDTH 521 0
DWIDTH 26 0
BBX 26 34 1 0
BITMAP
0007F000
003FFC00
007FFE00
00F07F00
01C03F00
03801F80
00000F80
00000F80
00000F80
00000F80
00000F00
00001F00
00001E00
00003C00
00003C00
00007800
0000F000
0001E000
0003C000
00038000
00070000
000E0000
001C0000
00300000
00600000
00C00C00
01800C00
03001800
06001800
0E007800
1FFFF800
3FFFF800
3FFFF000
7FFFF000
ENDCHAR

STARTCHAR three
ENCODING 51
SWIDTH 521 0
DWIDTH 26 0
BBX 27 34 0 0
BITMAP
0003F800
000FFE00
001FFF00
003C3F00
00700F80
00400F80
00000780
00000780
00000780
00000F80
00000F00
00001F00
00003E00
0000F800
0003E000
00FF8000
00FF8000
0007E000
0003F000
0000F800
0000F800
00007800
00007C00
00007C00
00007C00
00007C00
00007800
00007800
0000F800
0000F000
3C01E000
3F07C000
3FFF0000
0FF80000
ENDCHAR

STARTCHAR four
ENCODING 52
SWIDTH 521 0
DWIDTH 26 0
BBX 26 34 2 0
BITMAP
00000F00
00001F00
00001F00
00003E00
00007E00
0000FE00
0001BC00
00033C00
00063C00
000C7C00
00187800
00307800
00707800
00E0F800
01C0F000
0380F000
0700F000
0E01F000
1C01E000
3801E000
7003E000
7FFFFF00
7FFFFE00
7FFFFE00
0007C000
00078000
00078000
00078000
000F8000
000F0000
000F0000
001F0000
001F0000
001E0000
ENDCHAR

STARTCHAR five
ENCODING 53
SWIDTH 521 0
DWIDTH 26 0
BBX 28 34 0 0
BITMAP
000000C0
0007FFC0
000FFF80
000FFF80
001FFF00
00180000
00300000
00300000
00600000
00600000
00FE0000
00FF8000
01FFC000
007FE000
000FF000
0003F800
0000FC00
00007C00
00003E00
00001E00
00001E00
00000E00
00000E00
00000E00
00000E00
00000E00
00001C00
00001C00
00003800
00003000
1C00E000
3F83C000
3FFF8000
0FFC0000
ENDCHAR

STARTCHAR six
ENCODING 54
SWIDTH 521 0
DWIDTH 26 0
BBX 26 35 2 -1
BITMAP
00000700
00007F80
0001FC00
0003E000
000FC000
001F0000
003E0000
007C0000
00F80000
01F00000
03F00000
03E00000
07C00000
07CFC000
0FBFF000
0FFFF800
1FE0FC00
1F807C00
3F007C00
3E003E00
3E003E00
3E003E00
3C003E00
3C003E00
3C003E00
3C003C00
3C003C00
3C007C00
1E007800
1E00F000
0E00F000
0F01E000
0787C000
03FF0000
007C0000
ENDCHAR

STARTCHAR seven
ENCODING 55
SWIDTH 521 0
DWIDTH 26 0
BBX 28 33 3 0
BITMAP
01FFFFC0
01FFFF80
03FFFF00
03FFFF00
03000E00
06000E00
06001C00
00003800
00003800
00007000
0000E000
0000E000
0001C000
00038000
00038000
00070000
00070000
000E0000
001C0000
001C0000
00380000
00700000
00700000
00E00000
01E00000
01C00000
03800000
07800000
07000000
0E000000
0E000000
1C000000
38000000
ENDCHAR

STARTCHAR eight
ENCODING 56
SWIDTH 521 0
DWIDTH 26 0
BBX 27 35 2 -1
BITMAP
0003F000
001FFC00
003C1E00
00700F00
00F00780
00E00380
01E00380
01E00380
01E00380
01F00780
01F00780
00F80F00
00FC1E00
007E7C00
003FF000
001FE000
001FC000
007FC000
01F7E000
03C3F000
0F81F800
1F00F800
3E00FC00
3C007C00
78007C00
78003C00
78003C00
78003C00
38003C00
3C003800
1C007800
1E00F000
0F83E000
03FF8000
00FC0000
ENDCHAR

STARTCHAR nine
ENCODING 57
SWIDTH 521 0
DWIDTH 26 0
BBX 26 34 2 0
BITMAP
000FC000
003FF000
00F07800
01E03C00
03C01E00
07C01E00
07801F00
0F800F00
0F000F00
0F000F00
1F000F00
1F000F00
1F000F00
1F001F00
1F001F00
0F801F00
0F807E00
0FC1FE00
07FFBE00
03FF7C00
00FC7C00
0000F800
0001F000
0001F000
0003E000
0007C000
000F8000
001F0000
003E0000
00FC0000
01F00000
0FC00000
3F000000
38000000
ENDCHAR

STARTCHAR colon
ENCODING 58
SWIDTH 312 0
DWIDTH 16 0
BBX 15 23 0 -1
BITMAP
00F0
01F8
01F8
01F8
01F8
00F0
0000
0000
0000
0000
0000
0000
0000
0000
0000
0000
0000
1E00
3F00
3F00
3F00
3F00
1E00
ENDCHAR

STARTCHAR semicolon
ENCODING 59
SWIDTH 312 0
DWIDTH 16 0
BBX 20 30 -3 -8
BITMAP
000780
000FC0
000FC0
000FC0
000FC0
000780
000000
000000
000000
000000
000000
000000
000000
000000
000000
03E000
07F000
07F000
07F800
03F800
01F800
007800
007000
007000
007000
00E000
01C000
0F8000
7E0000
700000
ENDCHAR

STARTCHAR less
ENCODING 60
SWIDTH 667 0
DWIDTH 33 0
BBX 30 25 2 4
BITMAP
00000030
000000F0
000003F0
00001FF0
00007FC0
0003FF00
000FFC00
003FE000
01FF8000
07FC0000
1FF00000
7F800000
7E000000
7F800000
7FE00000
0FF80000
03FF0000
007FC000
001FF800
0007FE00
0000FFC0
00003FF0
000007F0
000001F0
00000070
ENDCHAR

STARTCHAR equal
ENCODING 61
SWIDTH 667 0
DWIDTH 33 0
BBX 30 15 2 9
BITMAP
7FFFFFF0
7FFFFFF0
7FFFFFF0
7FFFFFF0
00000000
00000000
00000000
00000000
00000000
00000000
00000000
7FFFFFF0
7FFFFFF0
7FFFFFF0
7FFFFFF0
ENDCHAR

STARTCHAR greater
ENCODING 62
SWIDTH 667 0
DWIDTH 33 0
BBX 30 26 2 3
BITMAP
60000000
7C000000
7F000000
7FC00000
1FF80000
07FE0000
00FF8000
003FF000
000FFC00
0001FF00
00007FE0
00000FF0
000003F0
000007F0
00001FF0
0000FF80
0003FE00
001FF800
007FC000
03FF0000
0FFC0000
7FE00000
7F800000
7C000000
70000000
40000000
ENDCHAR

STARTCHAR question
ENCODING 63
SWIDTH 406 0
DWIDTH 20 0
BBX 21 36 1 -1
BITMAP
007C00
00FE00
01FF00
01FF80
00E3C0
0001C0
0000C0
0000E0
000060
000060
000060
000060
0000E0
0000E0
0001E0
0003E0
000FC0
01FFC0
03FF80
03FF00
03FC00
03E000
038000
070000
070000
060000
000000
000000
000000
000000
1E0000
3F0000
3F0000
3F0000
3F0000
1E0000
ENDCHAR

STARTCHAR at
ENCODING 64
SWIDTH 917 0
DWIDTH 46 0
BBX 46 46 0 -11
BITMAP
00000FFE0000
000078038000
0003C0006000
000700003800
001C00000C00
003800000600
007000000300
00E000000100
01C000000180
038000000080
0300000000C0
070001E1C040
0600071BC040
0E000C0B8060
0C00380F8060
1C00380F8060
1800700F0060
1800E00F0060
1801E00F0060
3801C00F0060
3803C00E0040
3003801E0040
3007801E00C0
3007803C00C0
3007003C0180
300F007C0180
300F007C0300
300F00B80300
380F01380600
180F03780C00
180F8E781818
1807FC787010
0C07F03FE030
0C01E01F0020
0E0000000060
0600000000C0
0300000000C0
038000000180
01C000000300
00E000000600
007000001C00
001C00003800
000E0000E000
0003C0078000
0000FFFE0000
00000FE00000
ENDCHAR

STARTCHAR A
ENCODING 65
SWIDTH 729 0
DWIDTH 36 0
BBX 39 35 -4 0
BITMAP
00000001F0
00000001F0
00000003F0
00000007F0
0000000FF0
0000001DF0
00000039F0
00000031F0
00000061E0
000000E1E0
000001C1E0
00000383E0
00000703E0
00000603E0
00000C03E0
00001C03E0
00003803E0
00007003C0
0000E003C0
0000FFFFC0
0001FFFFC0
00038007C0
00070007C0
000E0007C0
001C0007C0
00380007C0
00380007C0
0070000780
00E0000780
01E0000780
03E0000FC0
07E0000FC0
1FF0001FE0
3FFC01FFFC
3FFC01FFF8
ENDCHAR

STARTCHAR B
ENCODING 66
SWIDTH 698 0
DWIDTH 35 0
BBX 38 34 -1 0
BITMAP
003FFFFC00
003FFFFF00
000FE01FC0
0007E007E0
0007E003E0
0007C003F0
0007C001F0
0007C001F0
0007C001F0
00078001F0
000F8003F0
000F8003E0
000F0007C0
001F000F80
001F003E00
001FFFF000
001FFFF000
003E00FC00
003C003E00
003C001F00
007C001F80
007C000F80
0078000FC0
0078000FC0
00F8000FC0
00F8000FC0
00F0000F80
01F0001F80
01F0001F00
01F0003F00
03F8007E00
0FFC01FC00
3FFFFFF000
3FFFFF8000
ENDCHAR

STARTCHAR C
ENCODING 67
SWIDTH 708 0
DWIDTH 35 0
BBX 37 36 1 -1
BITMAP
00001FE000
0000FFFE00
0003E03F80
000F800FE0
001E0003E0
007C0003E0
00F80001E0
01F00001E0
03E00000C0
03E00000C0
07C00000C0
0FC0000000
0F80000000
1F80000000
1F00000000
3F00000000
3F00000000
3E00000000
3E00000000
7E00000000
7E00000000
7E00000000
7E00000000
7E00000600
3E00000E00
3E00000E00
3E00001E00
1F00001C00
1F00003C00
0F80003C00
0F80007C00
07C000F800
03F001F000
00FC0FC000
007FFF0000
0007F80000
ENDCHAR

STARTCHAR D
ENCODING 68
SWIDTH 781 0
DWIDTH 39 0
BBX 41 34 -1 0
BITMAP
007FFFF00000
007FFFFE0000
000FE03F8000
0007E00FC000
0007C003E000
0007C001F000
0007C001F800
00078000FC00
000F80007C00
000F80007C00
000F80007E00
001F00003E00
001F00003E00
001F00003E00
001E00003E00
003E00003E00
003E00003E00
003E00003E00
003C00003E00
007C00007E00
007C00007C00
007C00007C00
00F80000FC00
00F80000F800
00F80000F800
00F00001F000
01F00003E000
01F00003E000
01F00007C000
03F0000F8000
07F8003E0000
0FFC01FC0000
3FFFFFF00000
7FFFFF000000
ENDCHAR

STARTCHAR E
ENCODING 69
SWIDTH 656 0
DWIDTH 33 0
BBX 38 34 -1 0
BITMAP
007FFFFFF0
007FFFFFF0
001FE003F0
000FE001E0
0007C000E0
0007C000E0
0007C000C0
00078000C0
000F800000
000F800000
000F800000
000F000600
001F000E00
001F001C00
001E007C00
003FFFFC00
003FFFF800
003E00F800
003C007800
007C003800
007C003000
0078003000
00F8000000
00F8000000
00F8000000
00F0000000
01F0000300
01F0000700
03F0000E00
03F0001E00
07F0007E00
0FFC01FC00
7FFFFFFC00
7FFFFFF800
ENDCHAR

STARTCHAR F
ENCODING 70
SWIDTH 635 0
DWIDTH 32 0
BBX 38 34 -1 0
BITMAP
007FFFFFF0
007FFFFFF0
000FE001F0
0007E000F0
0007C000E0
0007C000E0
0007C00060
0007C00060
000F800000
000F800000
000F800000
000F000600
001F000E00
001F001C00
001F007C00
003FFFFC00
003FFFFC00
003E00F800
003C007800
007C003800
007C003000
007C003000
0078000000
00F8000000
00F8000000
00F0000000
01F0000000
01F0000000
01F0000000
03F0000000
07F8000000
0FFC000000
7FFF800000
7FFF000000
ENDCHAR

STARTCHAR G
ENCODING 71
SWIDTH 792 0
DWIDTH 40 0
BBX 39 36 3 -1
BITMAP
000007F000
00007FFF00
0003F00FE0
000F8003F8
001E0001F8
007C0000F0
00F80000F0
01F0000070
03E0000070
03E0000060
07C0000060
0F80000000
0F80000000
1F80000000
1F00000000
3F00000000
3F00000000
3E00000000
7E0003FFF8
7E0001FFF0
7E00007FC0
7E00003F80
7E00003F00
7E00003F00
7E00003E00
3E00003E00
3E00003E00
3F00003E00
1F00007C00
1F80007C00
0F80007C00
07C000F800
03F001F800
01FC0FF800
007FFFC000
000FFC0000
ENDCHAR

STARTCHAR H
ENCODING 72
SWIDTH 823 0
DWIDTH 41 0
BBX 48 34 -1 0
BITMAP
003FFF00FFFC
003FFE00FFFC
000FF8003FF0
0007F0001FC0
0007E0000F80
0007C0000F80
0007C0000F00
0007C0001F00
000780001F00
000F80001F00
000F80003E00
000F80003E00
000F00003E00
001F00003C00
001F00007C00
001FFFFFFC00
003FFFFFFC00
003FFFFFF800
003E0000F800
003C0000F800
007C0000F000
007C0001F000
007C0001F000
00F80001F000
00F80001E000
00F80003E000
00F00003E000
01F00003C000
01F00007C000
03F00007C000
07F0000FE000
0FF8003FF000
3FFF00FFFC00
7FFE00FFFC00
ENDCHAR

STARTCHAR I
ENCODING 73
SWIDTH 375 0
DWIDTH 19 0
BBX 25 34 -1 0
BITMAP
003FFE00
003FFE00
000FF800
0007F000
0007E000
0007C000
0007C000
0007C000
00078000
000F8000
000F8000
000F0000
001F0000
001F0000
001F0000
001E0000
003E0000
003E0000
003E0000
007C0000
007C0000
007C0000
00780000
00F80000
00F80000
00F80000
00F00000
01F00000
01F00000
03F00000
07F80000
0FFC0000
3FFF0000
7FFF0000
ENDCHAR

STARTCHAR J
ENCODING 74
SWIDTH 479 0
DWIDTH 24 0
BBX 34 45 -5 -10
BITMAP
0001F80700
0007FC0F80
000FFE1F80
000CFF1F00
00183FFF00
00181FFE00
00380FF800
003E03F000
003E00F000
003F01F000
001F01E000
001E01E000
000003E000
000003E000
000007C000
000007C000
0001FFFC00
0003FFFC00
00000F8000
00000F8000
00000F8000
00001F0000
00001F0000
00001F0000
00001F0000
00003E0000
00003E0000
00003E0000
00003E0000
00007C0000
00007C0000
00007C0000
0000F80000
0000F80000
0000F80000
0000F00000
0001F00000
0001E00000
0001E00000
1003C00000
3807800000
7C07000000
3F1E000000
3FFC000000
1FE0000000
ENDCHAR

STARTCHAR K
ENCODING 75
SWIDTH 771 0
DWIDTH 39 0
BBX 47 34 -2 0
BITMAP
001FFF81FFFC
003FFF81FFF8
0007FC007FE0
0003F8003F80
0003F0003E00
0003E0007800
0003E000F000
0003E001C000
0007C0038000
0007C00F0000
0007C01C0000
000780780000
000F81E00000
000F83800000
000F8F000000
001F3C000000
001F7E000000
001F7F000000
001E3F800000
003E1FC00000
003E0FC00000
003E07E00000
003C03F00000
007C01F80000
007C01FC0000
007800FE0000
00F8007F0000
00F8003F8000
00F8001FC000
01F8000FE000
03FC0007F000
07FC0003FE00
3FFF8001FF00
3FFF8000FF00
ENDCHAR

STARTCHAR L
ENCODING 76
SWIDTH 646 0
DWIDTH 32 0
BBX 35 34 -1 0
BITMAP
003FFF0000
003FFE0000
000FF80000
0007F00000
0007E00000
0007C00000
0007C00000
0007C00000
000F800000
000F800000
000F800000
000F000000
001F000000
001F000000
001F000000
003E000000
003E000000
003E000000
003C000000
007C000000
007C000000
007C000000
0078000000
00F8000000
00F8000000
00F8000000
01F0000180
01F0000380
01F0000700
03F0000F00
07F0003E00
0FF800FE00
3FFFFFFC00
3FFFFFFC00
ENDCHAR

STARTCHAR M
ENCODING 77
SWIDTH 979 0
DWIDTH 49 0
BBX 54 34 -2 0
BITMAP
0007FE00003FF8
0007FE00003FF0
0001FE00003F80
0000FE00007F00
0000FE00007F00
0000FE00007E00
0000FE0000FE00
0001FE0001BE00
0001BE0001BE00
00039E00033C00
00031E00063C00
00031F000E3C00
00061F000C3C00
00061F00187C00
000E1F00387C00
000C1F00307C00
000C0F00607C00
00180F80E07C00
00180F80C07800
00380F81807800
00300F83807800
00700F83007800
0060078600F800
0060078C00F800
00E007CC00F800
00C007D800F800
01C007F000F800
01C007F000F800
03C003E000F800
03C003E001F800
07C003C003F800
1FE003C007FC00
7FF803801FFF00
7FF803801FFF00
ENDCHAR

STARTCHAR N
ENCODING 78
SWIDTH 812 0
DWIDTH 41 0
BBX 48 34 -2 0
BITMAP
007F80003FFE
007FC0003FFC
000FE00007F0
0007E00003E0
0003F00003C0
0003F8000180
0003F8000180
0003FC000300
00067C000300
00067E000300
00063E000300
00061F000600
000C1F800600
000C0F800600
000C0FC00400
000C07C00C00
001803E00C00
001803F00C00
001801F01800
001801F81800
003000F81800
003000FC1000
0030007C3000
0070003E3000
0060003F3000
0060001F2000
0060001FE000
00E0000FE000
00E0000FE000
01E00007C000
03E00003E000
07F80003F000
3FFF0001F000
3FFE0001F800
ENDCHAR

STARTCHAR O
ENCODING 79
SWIDTH 792 0
DWIDTH 40 0
BBX 38 36 3 -1
BITMAP
00001FC000
0000FFF800
0007C07C00
000F001E00
003E000F00
007C000780
00F80007C0
01F00003E0
03E00003E0
03C00001E0
07C00001F0
0F800001F0
0F800001F0
1F800001F0
1F000001F0
3F000001F0
3F000003F0
3E000003F0
3E000003F0
7E000003F0
7E000003E0
7E000007E0
7E000007E0
7E000007C0
3E00000FC0
3E00000F80
3E00001F00
1E00003E00
1F00003E00
1F00007C00
0F8000F800
07C001E000
03E003C000
01F81F0000
007FFC0000
000FE00000
ENDCHAR

STARTCHAR P
ENCODING 80
SWIDTH 615 0
DWIDTH 31 0
BBX 37 34 -1 0
BITMAP
003FFFF000
007FFFFE00
000FE03F80
0007E00FC0
0007E007E0
0007C007E0
0007C003E0
0007C003F0
00078003F0
000F8003F0
000F8003F0
000F8003E0
001F0007E0
001F000FC0
001F001F80
001F007F00
003E1FFC00
003E1FF000
003E000000
003C000000
007C000000
007C000000
007C000000
00F8000000
00F8000000
00F8000000
00F0000000
01F0000000
01F0000000
03F0000000
03F8000000
0FFC000000
3FFF800000
3FFF000000
ENDCHAR

STARTCHAR Q
ENCODING 81
SWIDTH 792 0
DWIDTH 40 0
BBX 38 44 3 -9
BITMAP
00001FC000
0000FFF800
0007C07C00
000F001F00
003C000F80
0078000780
00F00007C0
01F00003E0
03E00003E0
07C00001E0
07C00001F0
0F800001F0
0F800001F0
1F000001F0
1F000001F0
3F000001F0
3E000003F0
3E000003F0
7E000003F0
7E000003E0
7E000007E0
7E000007E0
7E000007C0
3E00000FC0
3E00000F80
3E00001F00
3E00001F00
1F00003E00
0F00007C00
0F8000F800
07C001E000
03E007C000
00F81F0000
007FFC0000
0007C00000
000E000000
001C000000
0038000000
00E7E00010
01FFFF00F0
07FFFFFFE0
0FFFFFFF80
1E03FFFC00
08003FE000
ENDCHAR

STARTCHAR R
ENCODING 82
SWIDTH 698 0
DWIDTH 35 0
BBX 37 34 -1 0
BITMAP
003FFFF800
007FFFFF00
000FE03F80
0007E00FC0
0007E007E0
0007C003E0
0007C003F0
0007C003F0
00078003F0
000F8003F0
000F8003E0
000F0007E0
001F000FC0
001F001F80
001F00FF00
001FFFF800
003FFF8000
003E1F0000
003E0F8000
007C0FC000
007C07C000
007C07C000
007803E000
00F803E000
00F801F000
00F801F000
00F000F800
01F000F800
01F000FC00
03F0007E00
07F8007F00
0FFC003FC0
3FFF003FE0
3FFF001FE0
ENDCHAR

STARTCHAR S
ENCODING 83
SWIDTH 604 0
DWIDTH 30 0
BBX 34 36 0 -1
BITMAP
00007F8000
0003FFF800
000FC0FE00
001F003F00
003E001F00
003C000F00
007C000F00
007C000700
007C000600
007E000600
007E000200
003F000000
003F800000
001FC00000
000FF00000
0007F80000
0003FC0000
0001FE0000
0000FF0000
00007F8000
00003FC000
00001FC000
00000FE000
000007E000
0C0003F000
1C0003F000
1C0001F000
1C0001F000
1C0001F000
3E0001E000
3E0003E000
3F0003C000
1F800F8000
07F01F0000
01FFFC0000
001FE00000
ENDCHAR

STARTCHAR T
ENCODING 84
SWIDTH 667 0
DWIDTH 33 0
BBX 36 34 4 0
BITMAP
0FFFFFFFE0
0FFFFFFFC0
1F80F807C0
1E00F803C0
1C00F80380
1800F00380
3801F00180
3001F00180
0001F00000
0003E00000
0003E00000
0003E00000
0003C00000
0007C00000
0007C00000
0007C00000
000F800000
000F800000
000F800000
000F000000
001F000000
001F000000
001F000000
001E000000
003E000000
003E000000
003C000000
007C000000
007C000000
00FC000000
00FC000000
03FE000000
1FFFC00000
1FFFC00000
ENDCHAR

STARTCHAR U
ENCODING 85
SWIDTH 771 0
DWIDTH 39 0
BBX 40 35 5 -1
BITMAP
3FFF807FFC
3FFF007FFC
0FF8000FF0
07F00007C0
03E00007C0
03E0000380
03E0000380
03C0000300
07C0000300
07C0000700
07C0000600
0F80000600
0F80000600
0F80000600
0F00000C00
1F00000C00
1F00000C00
1F00000C00
1E00001800
3E00001800
3E00001800
3E00001800
3C00003800
7C00003000
7C00003000
7C00007000
7C00006000
3C0000E000
3E0000C000
3F0001C000
1F80038000
0FE01F0000
07FFFE0000
01FFF80000
003FC00000
ENDCHAR

STARTCHAR V
ENCODING 86
SWIDTH 719 0
DWIDTH 36 0
BBX 38 35 6 -1
BITMAP
3FFE00FFF8
7FFE00FFF0
0FF0003FC0
07E0001F80
07C0001F00
07C0001E00
07C0001C00
07C0001C00
07C0003800
07C0007000
07C0006000
07C000C000
07C001C000
07C0038000
07C0070000
07C0060000
07C00C0000
07C0180000
07C0380000
07C0700000
07C0E00000
07C0C00000
07C1800000
07C3000000
07C7000000
07CE000000
07DC000000
07D8000000
07F0000000
07E0000000
07E0000000
07C0000000
0780000000
0F00000000
0E00000000
ENDCHAR

STARTCHAR W
ENCODING 87
SWIDTH 979 0
DWIDTH 49 0
BBX 52 35 6 -1
BITMAP
3FF1FFC7FCFFC0
7FF1FF8FF8FFC0
1FC07F03F07F00
1F803E03E03E00
0F803E03C03C00
0F803E03803800
0F803E07003800
0F003E0E007000
0F803E0C006000
0F803E1800C000
0F801E3001C000
0F801E70038000
0F801EE0030000
0F801FC0060000
0F801F800E0000
0F801F001C0000
0F801F00180000
07801F00300000
07801F00700000
07803F00E00000
07807F00C00000
0780EF01800000
0781CF03000000
07818F87000000
07830F86000000
07860F8C000000
07CC0F98000000
07DC0FB8000000
07F80FB0000000
07F00FE0000000
07E007C0000000
07C007C0000000
07800780000000
07800700000000
07000700000000
ENDCHAR

STARTCHAR X
ENCODING 88
SWIDTH 781 0
DWIDTH 39 0
BBX 47 34 -2 0
BITMAP
001FFFC07FF8
001FFF807FF8
0003FC001FF0
0001F8001FC0
0001F8001F00
0000F8001E00
0000FC003C00
00007C007800
00007E00E000
00003E01C000
00003F038000
00001F070000
00001F8E0000
00000FB80000
00000FF00000
000007E00000
000007E00000
000003F00000
00000FF00000
00001DF80000
000038F80000
000070FC0000
0000E07C0000
0003807E0000
0007003E0000
000E003F0000
001C001F0000
0078001F8000
00F0000F8000
01F0000FC000
07F8000FE000
1FFC001FF000
3FFF00FFFE00
7FFE00FFFC00
ENDCHAR

STARTCHAR Y
ENCODING 89
SWIDTH 719 0
DWIDTH 36 0
BBX 39 34 4 0
BITMAP
3FFF007FF8
3FFF007FF8
0FF8001FE0
07F0000FC0
03F0000F80
03F0000F00
01F0001E00
01F0001C00
01F8003800
00F8007000
00F8006000
007C00E000
007C01C000
003E038000
003E070000
003E0E0000
001F1C0000
001F380000
000FB00000
000FE00000
0007C00000
0007C00000
000F800000
000F800000
000F800000
000F000000
001F000000
001F000000
001F000000
003F000000
007F000000
00FF800000
07FFF00000
07FFF00000
ENDCHAR

STARTCHAR Z
ENCODING 90
SWIDTH 625 0
DWIDTH 31 0
BBX 38 34 -2 0
BITMAP
000FFFFFF8
001FFFFFF0
001F8007E0
001E000FE0
003C001FC0
0038003F80
0030003F00
0000007E00
000000FC00
000001F800
000003F000
000007E000
00000FC000
00001F8000
00003F0000
00007F0000
0000FE0000
0001FC0000
0001F80000
0003F00000
0007E00000
000FC00000
001F800000
003F000000
007E000000
00FC000700
01F8000600
03F8000E00
07F0001C00
07E0003C00
0FC000FC00
1F8003F800
3FFFFFF800
3FFFFFF000
ENDCHAR

STARTCHAR bracketleft
ENCODING 91
SWIDTH 375 0
DWIDTH 19 0
BBX 27 44 0 -10
BITMAP
0003FF80
0003FF80
0003F000
0007C000
0007C000
00078000
00078000
000F0000
000F0000
000F0000
001F0000
001E0000
001E0000
003E0000
003C0000
003C0000
003C0000
00780000
00780000
00780000
00F80000
00F00000
00F00000
01F00000
01E00000
01E00000
03E00000
03C00000
03C00000
03C00000
07800000
07800000
07800000
0F800000
0F000000
0F000000
1F000000
1E000000
1E000000
1E000000
3E000000
3F000000
3FF00000
7FF00000
ENDCHAR

STARTCHAR backslash
ENCODING 92
SWIDTH 281 0
DWIDTH 14 0
BBX 9 36 4 -1
BITMAP
6000
2000
2000
3000
3000
3000
3000
3000
3000
1000
1000
1800
1800
1800
1800
1800
1800
0800
0800
0C00
0C00
0C00
0C00
0C00
0C00
0400
0400
0600
0600
0600
0600
0600
0600
0200
0300
0300
ENDCHAR

STARTCHAR bracketright
ENCODING 93
SWIDTH 375 0
DWIDTH 19 0
BBX 27 44 -7 -10
BITMAP
0001FFC0
0001FF80
00001F80
00000F80
00000F00
00000F00
00000F00
00001F00
00001E00
00001E00
00003E00
00003C00
00003C00
00003C00
00007800
00007800
00007800
0000F800
0000F000
0000F000
0001F000
0001E000
0001E000
0003E000
0003C000
0003C000
0003C000
00078000
00078000
00078000
000F8000
000F0000
000F0000
001F0000
001E0000
001E0000
001E0000
003C0000
003C0000
007C0000
007C0000
01F80000
3FF80000
3FF80000
ENDCHAR

STARTCHAR asciicircum
ENCODING 94
SWIDTH 427 0
DWIDTH 21 0
BBX 25 18 -2 16
BITMAP
00080000
000C0000
001E0000
003E0000
00370000
00630000
00618000
00C1C000
01C0C000
0180E000
03006000
03003000
06003000
0E001800
0C001C00
18000C00
18000600
30000600
ENDCHAR

STARTCHAR underscore
ENCODING 95
SWIDTH 500 0
DWIDTH 25 0
BBX 29 2 -2 -13
BITMAP
3FFFFFE0
3FFFFFE0
ENDCHAR

STARTCHAR quoteleft
ENCODING 96
SWIDTH 312 0
DWIDTH 16 0
BBX 13 15 7 20
BITMAP
0010
00F0
03C0
0700
0C00
1C00
3800
3800
3C00
3E00
3F80
3F80
1F80
0F80
0600
ENDCHAR

STARTCHAR a
ENCODING 97
SWIDTH 521 0
DWIDTH 26 0
BBX 27 23 1 -1
BITMAP
0003C300
001FF300
00387E00
00703E00
01C03E00
03C03E00
03803C00
07003C00
0E003C00
0E003800
1C007800
1C007800
3C00F000
3800F000
7801F000
7801F000
7802E180
7807E300
7C0DE300
7E39E600
3FF1FC00
1FE0F800
0FC0F000
ENDCHAR

STARTCHAR b
ENCODING 98
SWIDTH 469 0
DWIDTH 23 0
BBX 23 36 1 -1
BITMAP
000C00
03FC00
03F800
007800
007800
007000
007000
00F000
00F000
00E000
01E000
01E000
01C000
03C7E0
03CFF0
039FF8
03B8F8
07F07C
07C03C
07C03C
0F803C
0F803C
0F003C
1F0038
1E0038
1E0078
1E0070
3C00F0
3C00E0
3C01C0
3C01C0
3C0380
3E0700
1F1E00
0FF800
07E000
ENDCHAR

STARTCHAR c
ENCODING 99
SWIDTH 385 0
DWIDTH 19 0
BBX 19 23 1 -1
BITMAP
000F00
003F80
00E3C0
01C3C0
0383C0
030380
070000
0E0000
0E0000
1C0000
1C0000
380000
380000
780000
780000
780000
780180
780300
7C0600
3E1C00
3FFC00
1FF000
0FC000
ENDCHAR

STARTCHAR d
ENCODING 100
SWIDTH 500 0
DWIDTH 25 0
BBX 28 36 1 -1
BITMAP
000000C0
00003FC0
00003FC0
000007C0
00000380
00000780
00000780
00000700
00000700
00000F00
00000F00
00000E00
00001E00
0007DE00
003FFE00
0070FC00
00C07C00
01807C00
03807C00
07007800
0E007800
0E007800
1C007000
1C00F000
3C00F000
3800F000
7801E000
7801E000
7803E000
7807E300
7805C200
7C0FC600
7E3BEC00
3FF3F800
1FE3F000
0F81E000
ENDCHAR

STARTCHAR e
ENCODING 101
SWIDTH 385 0
DWIDTH 19 0
BBX 20 23 1 -1
BITMAP
000F80
003FC0
00E3C0
01C1C0
0381C0
0301C0
060180
0E0380
0E0700
1C0E00
1C3800
3BF000
3F8000
780000
780000
780000
780180
780300
7C0600
3E1E00
3FFC00
1FF000
0FC000
ENDCHAR

STARTCHAR f
ENCODING 102
SWIDTH 281 0
DWIDTH 14 0
BBX 31 45 -8 -10
BITMAP
000000F8
000003FC
0000073C
00000E3C
00000E00
00001C00
00003C00
00003C00
00003800
00007800
00007800
00007800
00007000
001FFF00
001FFF00
0000F000
0001E000
0001E000
0001E000
0001E000
0001C000
0003C000
0003C000
0003C000
00038000
00078000
00078000
00078000
00070000
000F0000
000F0000
000F0000
000E0000
001E0000
001E0000
001E0000
001C0000
003C0000
00380000
00380000
38700000
38600000
3CE00000
3F800000
1E000000
ENDCHAR

STARTCHAR g
ENCODING 103
SWIDTH 448 0
DWIDTH 22 0
BBX 28 32 -2 -10
BITMAP
0003E3C0
000FFFC0
003C3DC0
00381CC0
00701E00
00F01E00
00E01E00
01E01E00
01E01E00
01E03C00
01E03C00
01E07800
00F0F000
007FC000
007F0000
01C00000
03800000
07000000
07800000
07F80000
03FF0000
03FFC000
0F7FE000
1C07F000
3800F000
70007000
70007000
70007000
7800E000
3C01C000
1FFF8000
03F80000
ENDCHAR

STARTCHAR h
ENCODING 104
SWIDTH 521 0
DWIDTH 26 0
BBX 27 36 0 -1
BITMAP
00060000
01FE0000
03FE0000
003C0000
003C0000
003C0000
003C0000
00380000
00780000
00780000
00700000
00F00000
00F00000
00E03E00
01E0FF00
01E1CF00
01E30F00
01C60F00
03CC0F00
03C81E00
03981E00
07B01E00
07A03C00
07C03C00
0FC03800
0F807800
0F807800
1F00F000
1F00F000
1E00F180
1E01E100
3C01E300
3C01E600
3801FC00
7801F800
0000E000
ENDCHAR

STARTCHAR i
ENCODING 105
SWIDTH 271 0
DWIDTH 14 0
BBX 17 36 0 -1
BITMAP
000E00
001F00
001F00
001F00
000E00
000000
000000
000000
000000
000000
000000
000000
000000
01E000
03F000
07F000
0CF000
18F000
10F000
31F000
01E000
01E000
03C000
03C000
03C000
078000
078000
078000
0F0000
0F0800
0F1800
1E3000
1E6000
1FC000
1F8000
0F0000
ENDCHAR

STARTCHAR j
ENCODING 106
SWIDTH 240 0
DWIDTH 12 0
BBX 24 45 -8 -10
BITMAP
00001C
00003E
00003E
00003E
00001C
000000
000000
000000
000000
000000
000000
000000
000000
0001E0
0003F0
0007F0
000CF0
0018F0
0010F0
0030E0
0001E0
0001E0
0001C0
0003C0
0003C0
0003C0
000380
000780
000780
000780
000700
000F00
000F00
000E00
001E00
001E00
001C00
001C00
003C00
003800
003800
3C7000
3C6000
3FC000
0F0000
ENDCHAR

STARTCHAR k
ENCODING 107
SWIDTH 521 0
DWIDTH 26 0
BBX 27 36 0 -1
BITMAP
00030000
00FF0000
01FF0000
001E0000
001E0000
001E0000
001C0000
003C0000
003C0000
00380000
00380000
00780000
00780000
00707E00
00F0FF00
00F3FF80
00E70F80
01EC0780
01F80780
01F00780
03E00F00
03C01E00
03C07C00
0383F000
07FFC000
07FF0000
07078000
0F078000
0F038000
0E03C080
1E01C180
1E01E300
1C01F700
3C00FE00
3C00FC00
00007800
ENDCHAR

STARTCHAR l
ENCODING 108
SWIDTH 240 0
DWIDTH 12 0
BBX 16 35 0 -1
BITMAP
03FC
07FC
0078
0078
0078
0078
0070
00F0
00F0
00E0
01E0
01E0
01C0
03C0
03C0
03C0
0380
0780
0780
0700
0F00
0F00
0E00
1E00
1E00
1E00
1C00
3C00
3C20
3860
78C0
7980
7F00
7E00
3C00
ENDCHAR

STARTCHAR m
ENCODING 109
SWIDTH 771 0
DWIDTH 39 0
BBX 38 23 1 -1
BITMAP
01C03C01E0
07E0FE07F0
0FE19E0CF0
19E31E18F0
11E61E20F0
21C41C60E0
03C83CC1E0
03D83C81E0
03903D01C0
07A03B03C0
07E07A03C0
07407C0780
07C0740780
0F80F80780
0F00F80F00
0F00F00F00
1E01F00F00
1E01E01E30
1E01E01E20
3C01C01E60
3C03C01FC0
3803C01F80
0000000E00
ENDCHAR

STARTCHAR n
ENCODING 110
SWIDTH 531 0
DWIDTH 27 0
BBX 28 23 0 -1
BITMAP
01E01F00
03F03F80
07F0E780
0CF18780
18F10780
30F20780
01E60F00
01EC0F00
01E80F00
01D01E00
03F01E00
03E01E00
03C03C00
07C03C00
07803C00
07807800
0F007840
0F0078C0
0F00F180
1E00F300
1E00FE00
1E00FC00
00007800
ENDCHAR

STARTCHAR o
ENCODING 111
SWIDTH 448 0
DWIDTH 22 0
BBX 24 23 0 -1
BITMAP
0007C0
001FF0
0070F8
00E078
01C07C
03803C
07803C
07003C
0F003C
1E003C
1E003C
1E0078
3E0078
3C0078
3C0070
3C00F0
3C00E0
3C01C0
3E0380
1E0300
1F0E00
0FFC00
03E000
ENDCHAR

STARTCHAR p
ENCODING 112
SWIDTH 490 0
DWIDTH 24 0
BBX 31 36 -5 -10
BITMAP
0001E000
0001E000
0001C000
0001C000
0003FF00
0003FFC0
000FFFE0
001F83F0
003F81F0
006780F8
00C70078
018F0078
030F0078
000E0078
001E0078
001E0070
001E0070
001C00F0
003C00E0
003C01E0
003803C0
00780780
00780F00
00781E00
00707800
00FFE000
00FF0000
00E00000
01E00000
01E00000
01E00000
03C00000
03C00000
07E00000
0FF00000
3FFC0000
ENDCHAR

STARTCHAR q
ENCODING 113
SWIDTH 448 0
DWIDTH 22 0
BBX 23 32 1 -10
BITMAP
000788
003FFC
0070F8
00C078
018078
038078
070070
0E00F0
0E00F0
1C00E0
1C01E0
3C01E0
3801E0
3803C0
7803C0
7807C0
780780
780F80
7C1F80
7E3780
3FE700
1FEF00
0F8F00
000E00
001E00
001E00
001E00
001C00
003C00
007E00
00FF00
07FFC0
ENDCHAR

STARTCHAR r
ENCODING 114
SWIDTH 344 0
DWIDTH 17 0
BBX 20 22 1 0
BITMAP
070180
0F87C0
1F87C0
338FC0
2399C0
6391C0
07B080
076000
074000
07C000
078000
0F8000
0F0000
0F0000
0F0000
1E0000
1E0000
1E0000
1C0000
3C0000
3C0000
3C0000
ENDCHAR

STARTCHAR s
ENCODING 115
SWIDTH 333 0
DWIDTH 17 0
BBX 18 23 0 -1
BITMAP
007C00
01FF00
038F00
030780
070700
070000
078000
078000
03C000
03E000
03F000
01F000
00F800
007800
007C00
003C00
001C00
301C00
781C00
7C1800
3C3000
3FE000
0F8000
ENDCHAR

STARTCHAR t
ENCODING 116
SWIDTH 292 0
DWIDTH 15 0
BBX 16 27 1 -1
BITMAP
0070
00E0
01E0
07E0
3FFE
3FFC
03C0
0380
0780
0780
0700
0F00
0F00
0F00
0E00
1E00
1E00
1C00
3C00
3C00
3818
3830
7860
78C0
7F80
7F00
3C00
ENDCHAR

STARTCHAR u
ENCODING 117
SWIDTH 531 0
DWIDTH 27 0
BBX 27 23 0 -1
BITMAP
01E00380
03E00780
07F00780
0CF00F00
18E00F00
31E00F00
21E01F00
01C01E00
03C03E00
03C03E00
03807C00
07807C00
0780FC00
0781BC00
0F013800
0F037800
0F0678C0
0E0C7080
1E0CF180
1E38F300
1F70FE00
1FE0FC00
0F807800
ENDCHAR

STARTCHAR v
ENCODING 118
SWIDTH 521 0
DWIDTH 26 0
BBX 26 23 1 -1
BITMAP
03FE0E00
0FFC0F00
1FFC1F00
31F80F00
20180F00
60300700
78300300
78600300
78600300
30C00300
01C00600
03C00600
03800400
07800C00
07000C00
0F001800
0F003000
0F006000
0F80E000
07C1C000
07FF0000
03FE0000
00F00000
ENDCHAR

STARTCHAR w
ENCODING 119
SWIDTH 688 0
DWIDTH 34 0
BBX 35 23 1 -1
BITMAP
0010020200
07FE070700
1FFC0F0780
3FFC0F0780
30180F0780
20181E0380
70301E0380
78601E0180
78601C0180
78C01C0180
01C0180180
0380100300
0380300300
0700300300
0F00700600
0E00F00600
1E01B80C00
1E03381800
1E073C3800
1F0E1FF000
0FFC1FE000
0FF00FC000
03C0078000
ENDCHAR

STARTCHAR x
ENCODING 120
SWIDTH 490 0
DWIDTH 24 0
BBX 27 23 -1 -1
BITMAP
00E00780
01F00F80
03F81F80
06783B80
06387180
0C3C6000
003CC000
001C8000
001F8000
001F0000
000F0000
000F0000
000F0000
001F8000
001F8000
00378000
0063C100
00C3C300
30C1E200
3B81E600
3F01FC00
3E00F800
3C00F000
ENDCHAR

STARTCHAR y
ENCODING 121
SWIDTH 479 0
DWIDTH 24 0
BBX 32 32 -6 -10
BITMAP
000F0038
001F003C
003F803C
0067803C
0067803C
00C3801C
00C3C01C
0083C01C
0003C018
0003C018
0001C038
0001E030
0001E030
0001E060
0000E060
0000F0C0
0000F180
0000F180
0000F300
00007600
00007E00
00007C00
00007800
00003000
00006000
0000C000
00018000
00070000
3C0E0000
3E3C0000
3FF00000
3FC00000
ENDCHAR

STARTCHAR z
ENCODING 122
SWIDTH 490 0
DWIDTH 24 0
BBX 27 23 -1 -1
BITMAP
001E0180
007F8180
01FFE180
018FFF00
0303FF00
0380F600
03C00C00
03C03800
01807000
0001C000
00038000
000E0000
00380000
00700000
00C00000
01803800
07003C00
06003C00
0FF01C00
1FFC1C00
31FF3800
307FF000
300FC000
ENDCHAR

STARTCHAR braceleft
ENCODING 123
SWIDTH 479 0
DWIDTH 24 0
BBX 23 46 10 -11
BITMAP
00000C
000070
0000C0
000300
000600
000E00
001C00
001C00
003C00
003C00
003C00
003800
003800
007800
007800
007800
007000
007000
006000
00C000
018000
060000
380000
780000
0C0000
060000
030000
038000
038000
078000
078000
078000
0F0000
0F0000
1E0000
1E0000
3C0000
3C0000
3C0000
380000
380000
180000
1C0000
0E0000
030000
00C000
ENDCHAR

STARTCHAR bar
ENCODING 124
SWIDTH 198 0
DWIDTH 10 0
BBX 5 46 3 -11
BITMAP
60
60
60
60
60
60
60
60
60
60
60
60
60
60
60
60
60
60
60
60
60
60
60
60
60
60
60
60
60
60
60
60
60
60
60
60
60
60
60
60
60
60
60
60
60
60
ENDCHAR

STARTCHAR braceright
ENCODING 125
SWIDTH 479 0
DWIDTH 24 0
BBX 23 46 3 -11
BITMAP
000200
0001C0
0000E0
000070
000030
000038
000038
000038
000078
000078
0000F0
0000F0
0001E0
0001E0
0001C0
0003C0
0003C0
000380
000380
000180
0000C0
000060
00003C
000038
0000C0
000300
000600
000E00
001C00
001C00
003C00
003C00
003C00
003C00
003800
007800
007800
007800
007000
007000
00E000
00C000
018000
070000
1C0000
200000
ENDCHAR

STARTCHAR asciitilde
ENCODING 126
SWIDTH 542 0
DWIDTH 27 0
BBX 27 8 0 13
BITMAP
07E00040
0FF800C0
1FFE00C0
38FF8180
303FE780
200FFF00
6003FE00
4000FC00
ENDCHAR

STARTCHAR space
ENCODING 160
SWIDTH 250 0
DWIDTH 15 0
BBX 0 0 0 0
BITMAP
ENDCHAR

STARTCHAR afii10023
ENCODING 161
SWIDTH 656 0
DWIDTH 33 0
BBX 38 43 -2 0
BITMAP
00001C01C0
00003E07E0
00007E07E0
00007E07E0
00007E07E0
00003C03C0
0000000000
0000000000
0000000000
003FFFFFF8
003FFFFFF0
000FE001F0
0007E000F0
0007E00070
0007C00060
0007C00060
0007C00060
0007C00000
0007800000
000F800000
000F800600
000F000600
001F000E00
001F003E00
001FFFFC00
001FFFFC00
003E007C00
003E003800
003E003800
007C001800
007C001800
007C000000
0078000000
00F8000000
00F8000000
00F8000180
01F0000380
01F0000700
03F0000F00
03F8003E00
0FFC00FE00
3FFFFFFC00
3FFFFFFC00
ENDCHAR

STARTCHAR afii10051
ENCODING 162
SWIDTH 771 0
DWIDTH 39 0
BBX 36 35 3 -1
BITMAP
0FFFFFFFC0
0FFFFFFFC0
1F80F80F80
1E00F80780
1C00F00380
3801F00380
3801F00300
3001F00300
0003E00000
0003E00000
0003E00000
0003C00000
0007C3F000
0007DFFC00
0007F81F00
0007E00F80
000F800780
000F8003C0
000F0003C0
001F0003E0
001F0003E0
001F0003E0
001E0003E0
003E0003E0
003E0003E0
003C0003C0
007C0003C0
007C0F07C0
007C1F0780
00FC1F0F80
01FC1E0F00
03FE1C1E00
1FFF9C3C00
1FFF8FF000
000003C000
ENDCHAR

STARTCHAR afii10052
ENCODING 163
SWIDTH 563 0
DWIDTH 28 0
BBX 35 42 0 0
BITMAP
000003F800
000007F000
000007C000
00000F8000
00000F0000
00001C0000
0000000000
0000000000
007FFFFF80
00FFFFFF80
001FF01F80
000FE00F80
000FC00700
000F800300
000F800300
000F800300
000F000000
001F000000
001F000000
001E000000
003E000000
003E000000
003E000000
003C000000
007C000000
007C000000
007C000000
0078000000
00F8000000
00F8000000
00F0000000
00F0000000
01F0000000
01F0000000
01E0000000
03E0000000
03E0000000
07E0000000
0FE0000000
1FF0000000
7FFE000000
7FFE000000
ENDCHAR

STARTCHAR afii10053
ENCODING 164
SWIDTH 708 0
DWIDTH 35 0
BBX 36 36 3 -1
BITMAP
00000FC000
0000FFFC00
0003E01F00
000F8007C0
001E0003E0
007C0003E0
00F80001C0
01F00001C0
01F00001C0
03E00000C0
07C00000C0
07C0000000
0F80000000
0F80000000
1F80000000
1F00000000
1F00000000
3FFFFF0000
3FFFFF0000
3E00000000
3E00000000
3E00000000
3E00000000
3E00000000
3E00000000
3F00003800
3F00007C00
1F00007C00
1F0000FC00
0F8000FC00
0FC001F800
07C001F000
03F003E000
00FC0FC000
007FFF0000
0007F00000
ENDCHAR

STARTCHAR afii10054
ENCODING 165
SWIDTH 604 0
DWIDTH 30 0
BBX 34 36 0 -1
BITMAP
00007F8000
0003FFF800
000FC0FE00
001F003F00
003E001F00
003C000F00
007C000F00
007C000700
007C000600
007E000600
007E000200
003F000000
003F800000
001FC00000
000FF00000
0007F80000
0003FC0000
0001FE0000
0000FF0000
00007F8000
00003FC000
00001FC000
00000FE000
000007E000
0C0003F000
1C0003F000
1C0001F000
1C0001F000
1C0001F000
3E0001E000
3E0003E000
3F0003C000
1F800F8000
07F01F0000
01FFFC0000
001FE00000
ENDCHAR

STARTCHAR afii10055
ENCODING 166
SWIDTH 375 0
DWIDTH 19 0
BBX 25 34 -1 0
BITMAP
003FFE00
003FFE00
000FF800
0007F000
0007E000
0007C000
0007C000
0007C000
00078000
000F8000
000F8000
000F0000
001F0000
001F0000
001F0000
001E0000
003E0000
003E0000
003E0000
007C0000
007C0000
007C0000
00780000
00F80000
00F80000
00F80000
00F00000
01F00000
01F00000
03F00000
07F80000
0FFC0000
3FFF0000
7FFF0000
ENDCHAR

STARTCHAR afii10056
ENCODING 167
SWIDTH 375 0
DWIDTH 19 0
BBX 29 43 -2 0
BITMAP
000E00E0
001F03F0
003F03F0
003F03F0
003F03F0
001E01E0
00000000
00000000
00000000
001FFF00
003FFF00
000FFC00
0007F000
0003F000
0003E000
0003E000
0007C000
0007C000
0007C000
0007C000
000F8000
000F8000
000F8000
000F0000
001F0000
001F0000
001F0000
003E0000
003E0000
003E0000
003C0000
007C0000
007C0000
007C0000
00F80000
00F80000
00F80000
01F80000
01F80000
03F80000
07FC0000
3FFF8000
3FFF0000
ENDCHAR

STARTCHAR afii10057
ENCODING 168
SWIDTH 479 0
DWIDTH 24 0
BBX 34 45 -5 -10
BITMAP
0001F80700
0007FC0F80
000FFE1F80
000CFF1F00
00183FFF00
00181FFE00
00380FF800
003E03F000
003E00F000
003F01F000
001F01E000
001E01E000
000003E000
000003E000
000007C000
000007C000
0001FFFC00
0003FFFC00
00000F8000
00000F8000
00000F8000
00001F0000
00001F0000
00001F0000
00001F0000
00003E0000
00003E0000
00003E0000
00003E0000
00007C0000
00007C0000
00007C0000
0000F80000
0000F80000
0000F80000
0000F00000
0001F00000
0001E00000
0001E00000
1003C00000
3807800000
7C07000000
3F1E000000
3FFC000000
1FE0000000
ENDCHAR

STARTCHAR afii10058
ENCODING 169
SWIDTH 927 0
DWIDTH 46 0
BBX 50 35 -2 -1
BITMAP
0001FFFFFF0000
0003FFFFFF0000
00007E07F80000
00003C03F00000
00003803E00000
00003003E00000
00003007C00000
00003007C00000
00002007C00000
00006007800000
0000600F800000
0000400F800000
0000C00F800000
0000C00F000000
0000801F000000
0001801FFE0000
0001801FFFC000
0001803E03F000
0001003E00FC00
0003003E007E00
0003003C003E00
0002007C001F00
0006007C001F00
00060078001F00
000400F8001F00
000C00F8001F00
000C00F8003F00
001800F0003F00
001801F0007E00
003001F000FC00
383003F801F800
7E600FFC07F000
7FC03FFFFFC000
7F803FFFFC0000
3F000000000000
ENDCHAR

STARTCHAR afii10059
ENCODING 170
SWIDTH 970 0
DWIDTH 48 0
BBX 51 34 -1 0
BITMAP
007FFE3FFF0000
007FFE3FFF0000
000FF807F80000
0007E003F00000
0007E003F00000
0007C003E00000
0007C003E00000
00078003C00000
000F8007C00000
000F8007C00000
000F0007C00000
001F000F800000
001F000F800000
001F000F800000
001E000F000000
003FFFFFFF0000
003FFFFFFFF000
003E001F01F800
007C003E007E00
007C003E003F00
007C003E001F00
0078003C000F80
00F8007C000F80
00F8007C000F80
00F8007C000F80
01F00078000F80
01F000F8001F80
01F000F8001F80
03F000F8003F00
03F001F8007E00
07F003F800FC00
1FF807FC03F800
3FFE3FFFFFE000
3FFE3FFFFE0000
ENDCHAR

STARTCHAR afii10060
ENCODING 171
SWIDTH 802 0
DWIDTH 40 0
BBX 35 34 3 0
BITMAP
0FFFFFFF00
0FFFFFFE00
1F83E03E00
1E03E01E00
1C03C00E00
3807C00C00
3007C00C00
3007C00C00
0007800000
000F800000
000F800000
000F07F000
001F1FFC00
001F783E00
001FE00F00
001F800F80
003F000780
003E0007C0
003C0007C0
007C0007C0
007C0007C0
007C0007C0
0078000780
00F8000F80
00F8000F80
00F8000F80
01F0001F00
01F0001F00
01F0001F00
03F0003F00
07F0007F00
0FF800FF80
3FFF03FFC0
7FFF07FF80
ENDCHAR

STARTCHAR afii10061
ENCODING 172
SWIDTH 708 0
DWIDTH 35 0
BBX 42 43 -2 0
BITMAP
0000001FE000
0000003F8000
0000007F0000
0000007C0000
000000F80000
000000E00000
000000000000
000000000000
000000000000
003FFF801F00
003FFF007F80
0007FC00FF80
0007F800FF00
0003F0018600
0003E0010000
0003E0030000
0003C0020000
0007C0060000
0007C0060000
0007C00C0000
000F800C0000
000F80180000
000F80380000
000F00700000
001FFFC00000
001FFF000000
001F0F800000
001E07C00000
003E07C00000
003E03E00000
003C03E00000
007C01F00000
007C01F00000
007C00F80000
007800F80000
00F8007C0000
00F8007C0000
01F8003E0000
01F8003E0000
03F8001F0000
07FC001FC000
3FFF800FF000
3FFF000FF000
ENDCHAR

STARTCHAR hyphen
ENCODING 173
SWIDTH 365 0
DWIDTH 18 0
BBX 20 4 0 10
BITMAP
1FFFC0
3FFFC0
3FFFC0
3FFF80
ENDCHAR

STARTCHAR afii10062
ENCODING 174
SWIDTH 688 0
DWIDTH 34 0
BBX 38 44 4 -1
BITMAP
0006001C00
000F003C00
000F807C00
000FC0FC00
0007C1F800
0001FFE000
00001E0000
0000000000
0000000000
1FFF007FF8
1FFF00FFF0
07F8003FC0
03F0001F80
03F0000F00
01F0000E00
01F0000C00
00F0001C00
00F8001800
00F8003000
00F8003000
007C006000
007C00C000
007C018000
003E018000
003E030000
003E060000
001E0E0000
001F0C0000
001F180000
000F300000
000FB00000
000FE00000
000FC00000
0007C00000
0007800000
0007000000
0006000000
0006000000
380C000000
7C18000000
7E38000000
7FF0000000
3FC0000000
0F00000000
ENDCHAR

STARTCHAR afii10145
ENCODING 175
SWIDTH 813 0
DWIDTH 41 0
BBX 48 42 -2 -8
BITMAP
003FFF007FFC
003FFF00FFFC
0007FC001FF0
0003F8000FE0
0003F0000FC0
0003E0000F80
0003E0000F80
0003C0000F80
0007C0000F00
0007C0001F00
0007C0001F00
000780001E00
000F80003E00
000F80003E00
000F00003E00
001F00003C00
001F00007C00
001F00007C00
001E00007C00
003E0000F800
003E0000F800
003C0000F800
007C0000F000
007C0001F000
007C0001F000
00780001F000
00F80001E000
00F80003E000
01F80003E000
01F80007E000
03F8000FE000
07FC001FF800
3FFFFFFFFE00
3FFFFFFFFC00
00003E000000
00003C000000
00007C000000
00007C000000
00007C000000
000078000000
0000F8000000
0000F8000000
ENDCHAR

STARTCHAR afii10017
ENCODING 176
SWIDTH 729 0
DWIDTH 36 0
BBX 39 35 -4 0
BITMAP
00000001F0
00000001F0
00000003F0
00000007F0
0000000FF0
0000001DF0
00000039F0
00000031F0
00000061E0
000000E1E0
000001C1E0
00000383E0
00000703E0
00000603E0
00000C03E0
00001C03E0
00003803E0
00007003C0
0000E003C0
0000FFFFC0
0001FFFFC0
00038007C0
00070007C0
000E0007C0
001C0007C0
00380007C0
00380007C0
0070000780
00E0000780
01E0000780
03E0000FC0
07E0000FC0
1FF0001FE0
3FFC01FFFC
3FFC01FFF8
ENDCHAR

STARTCHAR afii10018
ENCODING 177
SWIDTH 688 0
DWIDTH 34 0
BBX 38 34 -1 0
BITMAP
003FFFFFF0
003FFFFFF0
000FFC03F0
0007F000F0
0007E000F0
0003E00070
0007C00060
0007C00060
0007C00000
0007800000
000F800000
000F800000
000F800000
001F000000
001F000000
001FFF0000
001FFFE000
003E01F800
003E007E00
003E003F00
003C001F00
007C000F80
007C000F80
0078000F80
00F8000F80
00F8000F80
00F8000F80
00F0001F00
01F0001F00
01F0003E00
03F800FC00
0FFC03F800
3FFFFFE000
3FFFFE0000
ENDCHAR

STARTCHAR afii10019
ENCODING 178
SWIDTH 698 0
DWIDTH 35 0
BBX 38 34 -1 0
BITMAP
003FFFFC00
003FFFFF00
000FE01FC0
0007E007E0
0007E003E0
0007C003F0
0007C001F0
0007C001F0
0007C001F0
00078001F0
000F8003F0
000F8003E0
000F0007C0
001F000F80
001F003E00
001FFFF000
001FFFF000
003E00FC00
003C003E00
003C001F00
007C001F80
007C000F80
0078000FC0
0078000FC0
00F8000FC0
00F8000FC0
00F0000F80
01F0001F80
01F0001F00
01F0003F00
03F8007E00
0FFC01FC00
3FFFFFF000
3FFFFF8000
ENDCHAR

STARTCHAR afii10020
ENCODING 179
SWIDTH 563 0
DWIDTH 28 0
BBX 35 34 0 0
BITMAP
007FFFFF80
00FFFFFF80
001FF01F80
000FE00F80
000FC00700
000F800300
000F800300
000F800300
000F000000
001F000000
001F000000
001E000000
003E000000
003E000000
003E000000
003C000000
007C000000
007C000000
007C000000
0078000000
00F8000000
00F8000000
00F0000000
00F0000000
01F0000000
01F0000000
01E0000000
03E0000000
03E0000000
07E0000000
0FE0000000
1FF0000000
7FFE000000
7FFE000000
ENDCHAR

STARTCHAR afii10021
ENCODING 180
SWIDTH 677 0
DWIDTH 34 0
BBX 43 42 -5 -8
BITMAP
0001FFFFFFC0
0003FFFFFF80
00007E01FF00
00003C00FE00
00003800FC00
00003800F800
00003000F800
00003000F800
00003000F000
00002001F000
00006001F000
00006001F000
00006001E000
0000C003E000
0000C003E000
0000C003E000
00008003C000
00018007C000
00018007C000
000100078000
0003000F8000
0003000F8000
0002000F8000
0006000F0000
0006001F0000
000C001F0000
000C001E0000
0018003E0000
0018003E0000
0030007E0000
0070007F0000
01F801FF8000
0FFFFFFFE000
1FFFFFFFE000
1FC00007E000
1F000003C000
1E000001C000
3C000001C000
38000001C000
300000018000
700000018000
600000018000
ENDCHAR

STARTCHAR afii10022
ENCODING 181
SWIDTH 656 0
DWIDTH 33 0
BBX 38 34 -1 0
BITMAP
007FFFFFF0
007FFFFFF0
000FE003F0
000FE001E0
0007C000E0
0007C000E0
0007C000C0
00078000C0
000F800000
000F800000
000F800000
000F000600
001F000E00
001F001C00
001E007C00
003FFFFC00
003FFFF800
003E00F800
003C007800
007C003800
007C003000
0078003000
00F8000000
00F8000000
00F8000000
00F0000000
01F0000300
01F0000700
03F0000E00
03F0001E00
07F0007E00
0FFC01FC00
7FFFFFFC00
7FFFFFF800
ENDCHAR

STARTCHAR afii10024
ENCODING 182
SWIDTH 969 0
DWIDTH 48 0
BBX 54 34 -2 0
BITMAP
000F007FFE01F0
001FC07FFE03F8
001FE00FF807F8
001FE00FF00FF8
000E7007E00C70
00003007C01800
00003007C01800
00003007801000
0000300F803000
0000300F803000
0000600F806000
0000600F006000
0000601F00C000
0000601F00C000
0000301F018000
0000383E030000
00001FFFFE0000
00003FFFF80000
0000FC3C7C0000
0000F87C3E0000
0001F07C3E0000
0003E07C1E0000
0007E0F81F0000
000FC0F81F0000
000F80F80F8000
001F80F00F8000
003F01F007C000
007E01F007C000
00FC01F007E000
00FC03F003E000
01F807F003F000
07F00FF801FC00
3FE07FFF00FE00
7FC07FFE00FE00
ENDCHAR

STARTCHAR afii10025
ENCODING 183
SWIDTH 569 0
DWIDTH 28 0
BBX 32 36 -1 -1
BITMAP
0000FE00
0007FFC0
003F81E0
003F00F0
003E00F8
003C007C
0038007C
0030007C
0070007C
0000007C
0000007C
000000F8
000000F8
000001F0
000003E0
00000F80
0007FE00
0007FC00
00001F00
00000F80
000007C0
000007C0
000003E0
000003E0
000003E0
000003E0
1C0003E0
3E0007E0
3E0007E0
3F000FC0
3F000FC0
1F001F80
1F803F00
07E0FE00
03FFF800
007FC000
ENDCHAR

STARTCHAR afii10026
ENCODING 184
SWIDTH 813 0
DWIDTH 41 0
BBX 47 34 -1 0
BITMAP
003FFE00FFF8
007FFE01FFF8
000FF8003FE0
0007F0001F80
0007E0001F80
0007C0003F00
0007C0007F00
0007C000FE00
00078001BE00
000F80033E00
000F80063E00
000F000C3C00
001F00187C00
001F00307C00
001F00607C00
001E00C07800
003E0180F800
003E0300F800
003E0600F000
007C0C01F000
007C1801F000
007C3001F000
00786001E000
00F8C003E000
00F98003E000
00FB0003E000
00F60003C000
01FC0007C000
01F80007C000
03F0000FC000
07F0001FC000
0FF8003FE000
7FFE00FFF800
7FFE01FFF800
ENDCHAR

STARTCHAR afii10027
ENCODING 185
SWIDTH 813 0
DWIDTH 41 0
BBX 47 44 -1 0
BITMAP
000003000C00
000007801E00
000007C03E00
000007C07E00
000003E0FC00
000001FFF000
0000003F8000
000000000000
000000000000
000000000000
003FFE00FFF8
007FFE01FFF8
000FF8003FE0
0007F0001F80
0007E0001F80
0007C0003F00
0007C0007F00
0007C000FE00
00078001BE00
000F80033E00
000F80063E00
000F000C3C00
001F00187C00
001F00307C00
001F00607C00
001E00C07800
003E0180F800
003E0300F800
003E0600F000
007C0C01F000
007C1801F000
007C3001F000
00786001E000
00F8C003E000
00F98003E000
00FB0003E000
00F60003C000
01FC0007C000
01F80007C000
03F0000FC000
07F0001FC000
0FF8003FE000
7FFE00FFF800
7FFE01FFF800
ENDCHAR

STARTCHAR afii10028
ENCODING 186
SWIDTH 708 0
DWIDTH 35 0
BBX 42 34 -2 0
BITMAP
003FFF801F00
003FFF007F80
0007FC00FF80
0007F800FF00
0003F0018600
0003E0010000
0003E0030000
0003C0020000
0007C0060000
0007C0060000
0007C00C0000
000F800C0000
000F80180000
000F80380000
000F00700000
001FFFC00000
001FFF000000
001F0F800000
001E07C00000
003E07C00000
003E03E00000
003C03E00000
007C01F00000
007C01F00000
007C00F80000
007800F80000
00F8007C0000
00F8007C0000
01F8003E0000
01F8003E0000
03F8001F0000
07FC001FC000
3FFF800FF000
3FFF000FF000
ENDCHAR

STARTCHAR afii10029
ENCODING 187
SWIDTH 718 0
DWIDTH 36 0
BBX 44 35 -3 -1
BITMAP
0001FFFFFFE0
0003FFFFFFC0
00007F01FF00
00003C00FE00
00001C00FC00
00001800F800
00001800F800
00001000F800
00003000F000
00003001F000
00002001F000
00002001F000
00006001E000
00006003E000
00004003E000
0000C003C000
0000C003C000
0000C007C000
00008007C000
000180078000
0001800F8000
0001000F8000
0001000F8000
0003000F0000
0002001F0000
0006001F0000
0006001E0000
0004001E0000
000C003E0000
0018003E0000
1C18007E0000
3E3001FF8000
3FE007FFE000
3FC007FFC000
1F8000000000
ENDCHAR

STARTCHAR afii10030
ENCODING 188
SWIDTH 979 0
DWIDTH 49 0
BBX 54 34 -2 0
BITMAP
0007FE00003FF8
0007FE00003FF0
0001FE00003F80
0000FE00007F00
0000FE00007F00
0000FE00007E00
0000FE0000FE00
0001FE0001BE00
0001BE0001BE00
00039E00033C00
00031E00063C00
00031F000E3C00
00061F000C3C00
00061F00187C00
000E1F00387C00
000C1F00307C00
000C0F00607C00
00180F80E07C00
00180F80C07800
00380F81807800
00300F83807800
00700F83007800
0060078600F800
0060078C00F800
00E007CC00F800
00C007D800F800
01C007F000F800
01C007F000F800
03C003E000F800
03C003E001F800
07C003C003F800
1FE003C007FC00
7FF803801FFF00
7FF803801FFF00
ENDCHAR

STARTCHAR afii10031
ENCODING 189
SWIDTH 823 0
DWIDTH 41 0
BBX 48 34 -1 0
BITMAP
003FFF00FFFC
003FFE00FFFC
000FF8003FF0
0007F0001FC0
0007E0000F80
0007C0000F80
0007C0000F00
0007C0001F00
000780001F00
000F80001F00
000F80003E00
000F80003E00
000F00003E00
001F00003C00
001F00007C00
001FFFFFFC00
003FFFFFFC00
003FFFFFF800
003E0000F800
003C0000F800
007C0000F000
007C0001F000
007C0001F000
00F80001F000
00F80001E000
00F80003E000
00F00003E000
01F00003C000
01F00007C000
03F00007C000
07F0000FE000
0FF8003FF000
3FFF00FFFC00
7FFE00FFFC00
ENDCHAR

STARTCHAR afii10032
ENCODING 190
SWIDTH 792 0
DWIDTH 40 0
BBX 38 36 3 -1
BITMAP
00001FC000
0000FFF800
0007C07C00
000F001E00
003E000F00
007C000780
00F80007C0
01F00003E0
03E00003E0
03C00001E0
07C00001F0
0F800001F0
0F800001F0
1F800001F0
1F000001F0
3F000001F0
3F000003F0
3E000003F0
3E000003F0
7E000003F0
7E000003E0
7E000007E0
7E000007E0
7E000007C0
3E00000FC0
3E00000F80
3E00001F00
1E00003E00
1F00003E00
1F00007C00
0F8000F800
07C001E000
03E003C000
01F81F0000
007FFC0000
000FE00000
ENDCHAR

STARTCHAR afii10033
ENCODING 191
SWIDTH 813 0
DWIDTH 41 0
BBX 47 34 -1 0
BITMAP
003FFFFFFFF8
007FFFFFFFF8
000FF8003FE0
0007F0001F80
0007E0001F80
0007C0001F00
0007C0001F00
0007C0001E00
000F80003E00
000F80003E00
000F80003E00
000F00003C00
001F00007C00
001F00007C00
001F00007C00
001E00007800
003E0000F800
003E0000F800
003C0000F000
007C0001F000
007C0001F000
007C0001F000
00780001E000
00F80003E000
00F80003E000
00F80003E000
01F00007C000
01F00007C000
01F00007C000
03F0000FC000
07F0001FC000
0FF8003FE000
7FFE00FFF800
7FFE01FFF800
ENDCHAR

STARTCHAR afii10034
ENCODING 192
SWIDTH 615 0
DWIDTH 31 0
BBX 37 34 -1 0
BITMAP
003FFFF000
007FFFFE00
000FE03F80
0007E00FC0
0007E007E0
0007C007E0
0007C003E0
0007C003F0
00078003F0
000F8003F0
000F8003F0
000F8003E0
001F0007E0
001F000FC0
001F001F80
001F007F00
003E1FFC00
003E1FF000
003E000000
003C000000
007C000000
007C000000
007C000000
00F8000000
00F8000000
00F8000000
00F0000000
01F0000000
01F0000000
03F0000000
03F8000000
0FFC000000
3FFF800000
3FFF000000
ENDCHAR

STARTCHAR afii10035
ENCODING 193
SWIDTH 708 0
DWIDTH 35 0
BBX 37 36 2 -1
BITMAP
00001FE000
0000FFFE00
0003E03F80
000F800FE0
001E0003E0
007C0003E0
00F80001E0
01F00001E0
03E00000C0
03E00000C0
07C00000C0
0FC0000000
0F80000000
1F80000000
1F00000000
3F00000000
3F00000000
3E00000000
3E00000000
7E00000000
7E00000000
7E00000000
7E00000000
7E00000600
3E00000E00
3E00000E00
3E00001E00
1F00001C00
1F00003C00
0F80003C00
0F80007C00
07C000F800
03F001F000
00FC0FC000
007FFF0000
0007F80000
ENDCHAR

STARTCHAR afii10036
ENCODING 194
SWIDTH 667 0
DWIDTH 33 0
BBX 36 34 4 0
BITMAP
0FFFFFFFE0
0FFFFFFFC0
1F80F807C0
1E00F803C0
1C00F80380
1800F00380
3801F00180
3001F00180
0001F00000
0003E00000
0003E00000
0003E00000
0003C00000
0007C00000
0007C00000
0007C00000
000F800000
000F800000
000F800000
000F000000
001F000000
001F000000
001F000000
001E000000
003E000000
003E000000
003C000000
007C000000
007C000000
00FC000000
00FC000000
03FE000000
1FFFC00000
1FFFC00000
ENDCHAR

STARTCHAR afii10037
ENCODING 195
SWIDTH 688 0
DWIDTH 34 0
BBX 38 35 4 -1
BITMAP
1FFF007FF0
1FFF00FFF0
07F8003FC0
03F0001F80
03F0000F00
01F0000E00
01F0000C00
00F0001C00
00F8001800
00F8003000
00F8003000
007C006000
007C00C000
007C018000
003E018000
003E030000
003E060000
001E0E0000
001F0C0000
001F180000
000F300000
000FB00000
000FE00000
000FC00000
0007C00000
0007800000
0007000000
0006000000
0006000000
380C000000
7C18000000
7E38000000
7FF0000000
3FC0000000
0F00000000
ENDCHAR

STARTCHAR afii10038
ENCODING 196
SWIDTH 917 0
DWIDTH 46 0
BBX 45 34 3 0
BITMAP
00001FFFC000
00001FFFC000
000003FE0000
000001FC0000
000001F80000
00003FFF0000
000FFFFFF000
003F81F0FC00
00FC01E03E00
03F003E01F00
07E003E00F80
0FC003E007C0
0F8003C007C0
1F8007C003E0
1F0007C003E0
3F00078003E0
3E000F8003E0
3E000F8003E0
3E000F8003E0
3E000F0007C0
3E001F0007C0
1F001F000F80
1F001E001F80
0F803E003F00
07C03E007E00
03F03E01F800
00FE3C1FE000
003FFFFF0000
0001FF800000
0000FC000000
0000FC000000
0003FE000000
001FFFC00000
001FFFC00000
ENDCHAR

STARTCHAR afii10039
ENCODING 197
SWIDTH 781 0
DWIDTH 39 0
BBX 47 34 -2 0
BITMAP
001FFFC07FF8
001FFF807FF8
0003FC001FF0
0001F8001FC0
0001F8001F00
0000F8001E00
0000FC003C00
00007C007800
00007E00E000
00003E01C000
00003F038000
00001F070000
00001F8E0000
00000FB80000
00000FF00000
000007E00000
000007E00000
000003F00000
00000FF00000
00001DF80000
000038F80000
000070FC0000
0000E07C0000
0003807E0000
0007003E0000
000E003F0000
001C001F0000
0078001F8000
00F0000F8000
01F0000FC000
07F8000FE000
1FFC001FF000
3FFF00FFFE00
7FFE00FFFC00
ENDCHAR

STARTCHAR afii10040
ENCODING 198
SWIDTH 813 0
DWIDTH 41 0
BBX 47 42 -1 -8
BITMAP
003FFE00FFF8
007FFE01FFF8
000FF8003FE0
0007F0001F80
0007E0001F80
0007C0001F00
0007C0001F00
0007C0001E00
000F80003E00
000F80003E00
000F80003E00
000F00003C00
001F00007C00
001F00007C00
001F00007800
001E00007800
003E0000F800
003E0000F800
003E0000F000
007C0001F000
007C0001F000
007C0001E000
00780001E000
00F80003E000
00F80003E000
00F80003C000
01F00007C000
01F00007C000
01F00007C000
03F0000FC000
07F0001FC000
0FF8003FF000
7FFFFFFFFC00
7FFFFFFFFC00
00000000FC00
000000007800
000000007800
000000003800
000000003000
000000003000
000000003000
000000003000
ENDCHAR

STARTCHAR afii10041
ENCODING 199
SWIDTH 771 0
DWIDTH 39 0
BBX 39 34 5 0
BITMAP
3FFE00FFF8
7FFE01FFF8
0FF8003FE0
07F0001F80
07E0001F80
07C0001F00
07C0001F00
07C0001E00
0780003E00
0F80003E00
0F80003E00
0F00003C00
1F00007C00
1F00007C00
1F00007800
1F0000F800
1F0001F800
0F0003F800
0F8007F000
07C00EF000
03F039F000
00FFF1F000
003F81E000
000003E000
000003E000
000003C000
000007C000
000007C000
000007C000
00000FC000
00001FC000
00003FE000
0000FFF800
0001FFF800
ENDCHAR

STARTCHAR afii10042
ENCODING 200
SWIDTH 1000 0
DWIDTH 50 0
BBX 56 34 -1 0
BITMAP
003FFE3FFE3FFC
003FFE3FFC7FFC
000FF80FF00FF0
0007F007E00FE0
0007E007E007C0
0007C007C007C0
0007C007C00F80
0007800F800F80
000F800F800F80
000F800F800F00
000F800F001F00
001F001F001F00
001F001F001F00
001F001F001E00
001F001E003E00
003E003E003E00
003E003E003C00
003E003C007C00
007C007C007C00
007C007C007C00
007C007C007800
007C007800F800
00F800F800F800
00F800F800F800
00F800F800F000
01F001F001F000
01F001F001F000
01F001F001E000
03F003E003E000
03F003E003E000
07F007F007F000
0FF81FF81FF800
3FFFFFFFFFFE00
7FFFFFFFFFFE00
ENDCHAR

STARTCHAR afii10043
ENCODING 201
SWIDTH 1000 0
DWIDTH 50 0
BBX 56 42 -1 -8
BITMAP
003FFE3FFE3FFC
003FFE3FFC7FFC
000FF80FF00FF0
0007F007E00FE0
0007E007E007C0
0007C007C007C0
0007C007C00F80
0007800F800F80
000F800F800F80
000F800F800F00
000F800F001F00
001F001F001F00
001F001F001F00
001F001F001E00
001F001E003E00
003E003E003E00
003E003E003C00
003E003C007C00
007C007C007C00
007C007C007C00
007C007C007800
007C007800F800
00F800F800F800
00F800F800F800
00F800F800F000
01F001F001F000
01F001F001F000
01F001F001E000
03F003E003E000
03F003E003E000
07F007F007F000
0FF81FF81FF800
3FFFFFFFFFFE00
7FFFFFFFFFFE00
00000000007C00
00000000003C00
00000000003C00
00000000001C00
00000000001800
00000000001800
00000000001800
00000000001000
ENDCHAR

STARTCHAR afii10044
ENCODING 202
SWIDTH 741 0
DWIDTH 37 0
BBX 35 34 4 0
BITMAP
0FFFFF8000
0FFFFF0000
1FC1F80000
1F03F00000
1C03E00000
3803E00000
3007C00000
7007C00000
0007C00000
0007800000
000F800000
000F800000
000F800000
000F000000
001F000000
001FFF0000
001FFFE000
003E01F800
003E007E00
003E003F00
003C001F00
007C000F80
007C000F80
007C000F80
0078000F80
00F8000F80
00F8001F80
00F8001F80
01F0003F00
01F0007E00
03F800FC00
0FFC03F800
3FFFFFE000
3FFFFF0000
ENDCHAR

STARTCHAR afii10045
ENCODING 203
SWIDTH 979 0
DWIDTH 49 0
BBX 56 34 -1 0
BITMAP
003FFF8000FFFC
007FFF8000FFFC
000FF800001FE0
0007F000000FC0
0007E000000FC0
0007E000000F80
0007C000000F80
0007C000000F00
00078000001F00
000F8000001F00
000F8000001E00
000F8000003E00
001F0000003E00
001F0000003E00
001F0000003C00
001FFF00007C00
003FFFE0007C00
003E01F8007C00
003E007E00F800
003C001F00F800
007C001F00F800
007C000F80F000
007C000F81F000
00F8000F81F000
00F8000F81F000
00F8000F81E000
00F0001F83E000
01F0001F03E000
01F0003F03E000
03F0007E07E000
07F000FC0FE000
0FFC03F81FF800
7FFFFFE07FFE00
7FFFFF00FFFE00
ENDCHAR

STARTCHAR afii10046
ENCODING 204
SWIDTH 642 0
DWIDTH 32 0
BBX 35 34 -1 0
BITMAP
003FFF8000
007FFF8000
000FF80000
0007F00000
0007E00000
0007E00000
0007C00000
0007C00000
0007800000
000F800000
000F800000
000F800000
001F000000
001F000000
001F000000
001FFF0000
003FFFE000
003E01F800
003E007E00
003C001F00
007C001F00
007C000F80
007C000F80
00F8000F80
00F8000F80
00F8000F80
00F0001F80
01F0001F00
01F0003F00
03F0007E00
07F000FC00
0FFC03F800
7FFFFFE000
7FFFFF0000
ENDCHAR

STARTCHAR afii10047
ENCODING 205
SWIDTH 708 0
DWIDTH 35 0
BBX 36 36 1 -1
BITMAP
0000FF0000
0007FFC000
003F81F000
00FE007800
00FC003C00
00F8001E00
00F0001F00
00E0000F00
00E0000F80
00C0000F80
00800007C0
00000007C0
00000007C0
00000007C0
00000007C0
00000007C0
00000007C0
0007FFFFC0
000FFFFFC0
0000000FC0
0000000F80
0000001F80
0000001F80
0000001F00
0000003F00
1800003E00
3C00007E00
7E0000FC00
7E0000FC00
7E0001F800
3E0003F000
3F0007E000
1F801F8000
0FC07F0000
03FFFC0000
003FC00000
ENDCHAR

STARTCHAR afii10048
ENCODING 206
SWIDTH 1135 0
DWIDTH 57 0
BBX 60 36 -2 -1
BITMAP
00000000007F0000
003FFF0003FFE000
003FFF000F01F000
0007F8003C007800
0003F00078003C00
0003F000F0001E00
0003E001E0001F00
0003E003C0000F80
0007C00780000F80
0007C00F80000780
0007C01F000007C0
0007801F000007C0
000F803E000007C0
000F803E000007C0
000F807C000007C0
000F007C000007C0
001FFFFC00000FC0
001FFFFC00000FC0
001E00FC00000FC0
003E00F800000FC0
003E00F800000F80
003E00F800001F80
003C00F800001F00
007C00F800001F00
007C00F800003E00
007C00F800003E00
0078007C00007C00
00F8007C0000F800
00F8007C0000F800
01F8003E0001F000
01F8001E0003E000
03F8000F00078000
0FFC0007800F0000
3FFF0003E07C0000
3FFF0001FFF00000
000000003F800000
ENDCHAR

STARTCHAR afii10049
ENCODING 207
SWIDTH 698 0
DWIDTH 35 0
BBX 43 34 -3 0
BITMAP
00000FFFFFC0
0000FFFFFF80
0001F800FE00
0007E000FC00
000FC000F800
000F8000F000
001F8001F000
001F0001F000
001F0001E000
001F0003E000
001F0003E000
000F8003E000
000FC003C000
0007E007C000
0001F807C000
00007FFFC000
00003FFF8000
00007C0F8000
0000F80F8000
0001F00F0000
0003F01F0000
0007E01F0000
0007C01F0000
000F801E0000
001F803E0000
003F003E0000
003E003E0000
007E003C0000
00FC007C0000
01F8007C0000
03F800FE0000
07F003FF0000
3FE00FFFC000
3FC00FFFC000
ENDCHAR

STARTCHAR afii10065
ENCODING 208
SWIDTH 521 0
DWIDTH 26 0
BBX 27 23 0 -1
BITMAP
0003C300
001FF300
00387E00
00703E00
01C03E00
03C03E00
03803C00
07003C00
0E003C00
0E003800
1C007800
1C007800
3C00F000
3800F000
7801F000
7801F000
7802E180
7807E300
7C0DE300
7E39E600
3FF1FC00
1FE0F800
0FC0F000
ENDCHAR

STARTCHAR afii10066
ENCODING 209
SWIDTH 448 0
DWIDTH 22 0
BBX 24 36 2 -1
BITMAP
000006
00001C
0007FC
001FF8
003FF8
007FE0
00F800
01C000
038000
030000
020000
060000
040000
0C0F00
083FC0
08E3E0
1981E0
1B80F0
1300F0
3600F0
3E00F0
2C00F0
3C00F0
3C00F0
7C00E0
7801E0
7801E0
7801C0
7803C0
780380
780780
380700
3C0E00
1E1C00
0FF000
07C000
ENDCHAR

STARTCHAR afii10067
ENCODING 210
SWIDTH 385 0
DWIDTH 19 0
BBX 19 23 1 -1
BITMAP
001E00
007F00
01C780
038380
070380
070380
0E0700
1E0F00
1E1C00
3C7800
3DE000
3FF800
3E1E00
780E00
780F00
780F00
780F00
780F00
381E00
381E00
1C3C00
0FF800
03C000
ENDCHAR

STARTCHAR afii10068
ENCODING 211
SWIDTH 302 0
DWIDTH 15 0
BBX 17 23 0 -1
BITMAP
007800
01FC00
031E00
060E00
000E00
000E00
000E00
001C00
001800
003000
00E000
018000
070000
0E0000
1C0000
380000
780000
780000
781000
783000
3C6000
3FC000
0F8000
ENDCHAR

STARTCHAR afii10069
ENCODING 212
SWIDTH 449 0
DWIDTH 22 0
BBX 23 35 1 -1
BITMAP
001000
001C00
000E00
000700
000380
0001C0
0000C0
0000E0
000070
000070
000070
000078
001E78
007FB8
01C1B8
0380F8
070078
070078
0E0078
1E0078
1C0078
3C0070
3C0070
380070
7800F0
7800E0
7800E0
7801C0
7801C0
780380
7C0300
3C0600
1E1C00
0FF800
03C000
ENDCHAR

STARTCHAR afii10070
ENCODING 213
SWIDTH 385 0
DWIDTH 19 0
BBX 20 23 1 -1
BITMAP
000F80
003FC0
00E3C0
01C1C0
0381C0
0301C0
060180
0E0380
0E0700
1C0E00
1C3800
3BF000
3F8000
780000
780000
780000
780180
780300
7C0700
3E1E00
3FFC00
1FF800
0FE000
ENDCHAR

STARTCHAR afii10072
ENCODING 214
SWIDTH 875 0
DWIDTH 44 0
BBX 47 23 -1 -1
BITMAP
007C000001E0
01FF00F007F8
03FF80E01E78
070F81E03838
0C07C1E07038
1803C1C0F010
3003C1C0E000
0003C3C1C000
0003C3C3C000
0003C3838000
0003FFFF8000
000787878000
000787070000
0007070F0000
000F0F0F0000
000E0E0F0010
001C0E0F0030
301C1E0F8060
78381E0F80C0
78701C07C3C0
78E01C07FF80
3F803C03FE00
1E000000F800
ENDCHAR

STARTCHAR afii10073
ENCODING 215
SWIDTH 365 0
DWIDTH 18 0
BBX 20 23 -2 -1
BITMAP
003F00
00FFC0
01C3C0
0301E0
0201E0
0001E0
0001E0
0003C0
000780
00FE00
01F000
001C00
000F00
000700
000780
000780
000780
180780
380F00
3C0F00
3E1E00
1FFC00
03E000
ENDCHAR

STARTCHAR afii10074
ENCODING 216
SWIDTH 531 0
DWIDTH 27 0
BBX 27 23 0 -1
BITMAP
01E00380
03E00780
07F00780
0CF00F00
18E00F00
31E00F00
21E01F00
01C01E00
03C03E00
03C03E00
03807C00
07807C00
0780FC00
0781BC00
0F013800
0F037800
0F0678C0
0E0C7080
1E0CF180
1E38F300
1F70FE00
1FE0FC00
0F807800
ENDCHAR

STARTCHAR afii10075
ENCODING 217
SWIDTH 531 0
DWIDTH 27 0
BBX 27 32 0 -1
BITMAP
000E0100
001F0300
001F0200
000F8C00
000FF800
0003F000
00000000
00000000
00000000
01E00380
03E00780
07F00780
0CF00700
18E00F00
31E00F00
21E01F00
01C01E00
03C03E00
03C03E00
03807C00
07807C00
0780FC00
0781BC00
0F013800
0F037800
0F0678C0
0E0C7080
1E0CF180
1E38F300
1F70FE00
1FE0FC00
0F807800
ENDCHAR

STARTCHAR afii10076
ENCODING 218
SWIDTH 489 0
DWIDTH 24 0
BBX 26 22 1 0
BITMAP
00700F00
0FE01F00
01E03F00
01E03600
01C06000
03C04000
03C0C000
0380C000
03818000
078F0000
07FC0000
071E0000
0F0F0000
0F0F0000
0E078000
1E078000
1E038000
1C03C000
3C03C000
3C01E000
3801F000
3800F800
ENDCHAR

STARTCHAR afii10077
ENCODING 219
SWIDTH 490 0
DWIDTH 24 0
BBX 27 23 -2 -1
BITMAP
000001C0
00003F80
0000F780
00018780
00030700
00060F00
000C0F00
00080E00
00181E00
00101E00
00301E00
00301C00
00203C00
00603C00
00603800
00407800
00C078C0
00807080
0180F100
3F00F300
3F00FE00
3E00FC00
3C007000
ENDCHAR

STARTCHAR afii10078
ENCODING 220
SWIDTH 586 0
DWIDTH 29 0
BBX 33 23 -3 -1
BITMAP
0007801E00
0007801E00
000F803E00
000F807C00
000F807C00
000F80FC00
001F80BC00
001781B800
0017837800
0037827800
0033867000
002384F000
00638CF000
006398F000
004390E000
00C3B1E000
0083E1E200
0183E1C600
0383C1CC00
3F0383C800
3E0383F000
3E0303E000
1C0301C000
ENDCHAR

STARTCHAR afii10079
ENCODING 221
SWIDTH 525 0
DWIDTH 26 0
BBX 27 22 1 0
BITMAP
0FF00780
03E00780
01E00700
01E00F00
01E00F00
03C00E00
03C01E00
03C01E00
03801C00
07803C00
07803C00
07FFF800
0F007800
0F007800
0F007000
0E00F000
1E00F000
1E00E300
1C01E600
3C01EC00
3C01F800
3C01F000
ENDCHAR

STARTCHAR afii10080
ENCODING 222
SWIDTH 448 0
DWIDTH 22 0
BBX 24 23 0 -1
BITMAP
0007C0
001FF0
0070F8
00E078
01C07C
03803C
07803C
07003C
0F003C
1E003C
1E003C
1E0078
3E0078
3C0078
3C0070
3C00F0
3C00E0
3C01C0
3E0380
1E0300
1F0E00
0FFC00
03E000
ENDCHAR

STARTCHAR afii10081
ENCODING 223
SWIDTH 531 0
DWIDTH 27 0
BBX 28 23 0 -1
BITMAP
01E01F00
03F03F80
07F0E780
0CF18780
18F10780
30F20780
01E60F00
01EC0F00
01E80F00
01D01E00
03F01E00
03E01E00
03C03C00
07C03C00
07803C00
07807800
0F007840
0F0078C0
0F00F180
1E00F300
1E00FE00
1E00FC00
00007800
ENDCHAR

STARTCHAR afii10082
ENCODING 224
SWIDTH 490 0
DWIDTH 24 0
BBX 30 36 -5 -10
BITMAP
0001E000
0001E000
0001C000
0003C000
0003FF00
0003FFC0
000FFFE0
001F83F0
003781F0
006700F8
00CF0078
018F0078
030F0078
000E0078
001E0078
001E0070
001C0070
003C00F0
003C00E0
003C01C0
003803C0
00780380
00780F00
00701E00
00707800
00FFE000
00FF0000
00E00000
01E00000
01E00000
01E00000
03C00000
03C00000
07C00000
0FF00000
3FFC0000
ENDCHAR

STARTCHAR afii10083
ENCODING 225
SWIDTH 385 0
DWIDTH 19 0
BBX 19 23 1 -1
BITMAP
000F00
003F80
00E3C0
01C3C0
0383C0
030380
070000
0E0000
0E0000
1C0000
1C0000
380000
380000
780000
780000
780000
780180
780300
7C0600
3E1C00
3FFC00
1FF000
0FC000
ENDCHAR

STARTCHAR afii10084
ENCODING 226
SWIDTH 771 0
DWIDTH 39 0
BBX 38 23 1 -1
BITMAP
01C03C01E0
07E0FE07F0
0FE19E0FF0
19E31E18F0
11E61E30F0
21C41C60E0
03C83C41E0
03D83C81E0
03903D81C0
07A03B03C0
07E07A03C0
07407E0380
07C0740780
0F80F80780
0F00F80F00
0F00F00F00
1E00F00F00
1E01E01E10
1E01E01E20
3C01C01E60
3C03C01FC0
3803C01F80
0000000E00
ENDCHAR

STARTCHAR afii10085
ENCODING 227
SWIDTH 479 0
DWIDTH 24 0
BBX 32 32 -6 -10
BITMAP
000F0038
001F003C
003F803C
0067803C
0067803C
00C3801C
00C3C01C
0083C01C
0003C018
0003C018
0001C038
0001E030
0001E030
0001E060
0000E060
0000F0C0
0000F180
0000F180
0000F300
00007600
00007E00
00007C00
00007800
00003000
00006000
0000C000
00018000
00070000
3C0E0000
3E3C0000
3FF00000
3FC00000
ENDCHAR

STARTCHAR afii10086
ENCODING 228
SWIDTH 625 0
DWIDTH 31 0
BBX 33 45 0 -10
BITMAP
0000003800
000000FE00
0000019E00
0000038E00
0000070400
00000F0000
00000F0000
00000E0000
00001E0000
00001E0000
00001C0000
00003C0000
00003C0000
000E39F000
003F7BF800
00F1FE3C00
01E0FC1C00
03C0F81E00
0380F01E00
0780F01E00
0F00E01E00
0F01E01E00
0E01E01E00
1E01C01E00
1E03C03C00
1C03C03C00
3C03803C00
3C03807800
3C07807800
3C0780F000
3C0F80E000
3C1F81E000
1C1F83C000
1E7EC78000
0FFEFE0000
079E780000
001C000000
003C000000
0038000000
0038000000
1070000000
3870000000
3CE0000000
3FC0000000
0F00000000
ENDCHAR

STARTCHAR afii10087
ENCODING 229
SWIDTH 490 0
DWIDTH 24 0
BBX 27 23 -1 -1
BITMAP
00E00780
01F00F80
03F81F80
06783B80
06387180
0C3C6000
003CC000
001C8000
001F8000
001F0000
000F0000
000F0000
000F0000
001F8000
001F8000
00378000
0063C100
00C3C300
30C1E200
3B81E600
3F01FC00
3E00F800
3C00F000
ENDCHAR

STARTCHAR afii10088
ENCODING 230
SWIDTH 521 0
DWIDTH 26 0
BBX 27 31 0 -9
BITMAP
01E00380
03F00780
07F00780
08E00F00
18E00F00
31E01F00
01E01E00
01C01E00
03C03E00
03C03C00
03807C00
07807C00
0780BC00
0701B800
0F017800
0F027800
0F0670C0
0E047180
1E08F100
1E10F300
1E60FE00
1FC0FC00
0F007800
00001000
00007000
00006000
0000E000
0000E000
0001C000
00038000
00030000
ENDCHAR

STARTCHAR afii10089
ENCODING 231
SWIDTH 490 0
DWIDTH 24 0
BBX 25 23 0 -1
BITMAP
07803C00
1FC03C00
1BC03C00
23C03800
63807800
07807800
07807000
07007000
0F00F000
0F00F000
0E01E000
0E07E000
0F0DE000
07F9C000
03C3C000
0003C000
00038600
00038C00
00078800
0007B800
0007F000
0003C000
00018000
ENDCHAR

STARTCHAR afii10090
ENCODING 232
SWIDTH 792 0
DWIDTH 40 0
BBX 40 23 1 -1
BITMAP
01C0000000
07E00F0078
0FE00F0078
19E00E0070
31E01E00F0
63C01E00F0
03C03E01F0
03C03C01E0
07807C03E0
07807C03E0
0780F805C0
0F00F80FC0
0F01780BC0
0F03701B80
1E02701780
1E04F02780
1E0CF06784
1C18E0C70C
3C30E18F18
3C61E30F30
3FC1E60FF0
1F81FC0FC0
0E00F80780
ENDCHAR

STARTCHAR afii10091
ENCODING 233
SWIDTH 792 0
DWIDTH 40 0
BBX 40 31 1 -9
BITMAP
01C0000000
07E00F0078
0FE00F0078
19E00E0070
31E01E00F0
23C01E00F0
03C03E01F0
03C03C01E0
07807C03E0
07807C03E0
0780F805C0
0700F80FC0
0F01780BC0
0F03701B80
0E02703780
1E04F02780
1E0CF06784
1E18E0C70C
3C30E18F08
3C61E30F10
3FC1E60FF0
1F81FC0FE0
0E00F80780
0000000100
0000000300
0000000700
0000000F00
0000000E00
0000000E00
0000001C00
0000003800
ENDCHAR

STARTCHAR afii10092
ENCODING 234
SWIDTH 396 0
DWIDTH 20 0
BBX 19 24 0 -1
BITMAP
000800
070800
0FF800
1FD800
301000
203000
002000
006000
00C000
019E00
03FF00
07C780
0783C0
0F03C0
0F03C0
1E03C0
1E03C0
1E0380
1E0780
1E0780
0E0F00
0F1E00
07FC00
01E000
ENDCHAR

STARTCHAR afii10093
ENCODING 235
SWIDTH 624 0
DWIDTH 31 0
BBX 30 22 2 -1
BITMAP
1FC00FE0
0FC007E0
078003E0
078003C0
078003C0
070003C0
07000380
0F000780
0F3C0780
0EFE0700
1F8F0700
1F078F00
1E078F00
3C078E00
3C079E00
38079E00
380F1C30
380F1C60
3C1E3CC0
1C3C3F80
0FF83F00
03C01E00
ENDCHAR

STARTCHAR afii10094
ENCODING 236
SWIDTH 406 0
DWIDTH 20 0
BBX 18 22 2 -1
BITMAP
1FC000
0FC000
078000
078000
078000
070000
070000
0F0000
0F3C00
0EFF00
1F8F00
1F0780
1E0780
3C0780
3C0780
380780
380F00
380F00
3C1E00
1C3C00
0FF800
03C000
ENDCHAR

STARTCHAR afii10095
ENCODING 237
SWIDTH 396 0
DWIDTH 20 0
BBX 23 23 -2 -1
BITMAP
001F80
007FE0
00E1F0
0180F0
030078
020078
000078
000078
000078
000078
000078
007FF0
0000F0
0000F0
0000E0
0001E0
0001C0
3C0380
3C0780
3C0E00
3C1C00
1FF800
03C000
ENDCHAR

STARTCHAR afii10096
ENCODING 238
SWIDTH 667 0
DWIDTH 33 0
BBX 34 23 1 -1
BITMAP
01F001F000
1FE007FC00
01E01C3E00
01E0381E00
01E0700F00
01C0E00F00
03C1E00F00
03C1C00F00
0383C00F00
0787800F00
0787800F00
07FF801E00
070F801E00
0F0F001E00
0E0F001C00
0E0F003C00
1E0F003800
1E0F007000
1C0F80E000
3C0780C000
3C07C38000
3803FF0000
0000F80000
ENDCHAR

STARTCHAR afii10097
ENCODING 239
SWIDTH 542 0
DWIDTH 27 0
BBX 29 23 -1 -1
BITMAP
000FFFE0
003F01E0
007C01C0
007803C0
00F003C0
00F00380
00F00380
00F00780
00700780
00780700
003E0F00
000FFF00
00380E00
00600E00
00401E00
00C01E00
00801C30
01803C20
03003C40
3F003CC0
7E003F80
7C003F00
38001C00
ENDCHAR

STARTCHAR afii61352
ENCODING 240
SWIDTH 1031 0
DWIDTH 52 0
BBX 51 36 1 -1
BITMAP
000FF800078000
000FF8001FC000
0007FC001FE000
0001FC003FC000
0001FC0063C000
0001FC00600000
0001BE00400000
0001BE00C00000
00013E00C00000
00033E00801E00
00031F01807F00
00031F0181E780
00021F0183C380
00061F010383C0
00060F030703C0
00060F830F03C0
00040F830F03C0
000C0F820E03C0
000C07861E0380
000807C61E0780
001807C41E0780
001807C41E0700
001803CC1E0E00
001003EC0E0E00
003003E80F1C00
003003F807F000
003001F803C000
006001F8000000
006001F0000000
006001F0000000
004000F0000000
38C000E0000000
7FC000E07FF800
7F8000E0FFF000
7F000060FFF000
1E000000000000
ENDCHAR

STARTCHAR afii10071
ENCODING 241
SWIDTH 385 0
DWIDTH 19 0
BBX 22 32 1 -1
BITMAP
007070
00F8F8
00F8F8
00F8F8
003070
000000
000000
000000
000000
001F80
003FC0
00E3C0
01C1C0
0381C0
0301C0
060180
0E0380
0C0700
1C0E00
1C3800
3BF000
3F8000
780000
780000
780000
780180
780300
7C0600
3E1E00
3FFC00
1FF000
0FC000
ENDCHAR

STARTCHAR afii10099
ENCODING 242
SWIDTH 510 0
DWIDTH 26 0
BBX 25 44 0 -9
BITMAP
01FE0000
01FE0000
003E0000
001C0000
003C0000
003C0000
00380000
00780000
0FFFFF00
00700000
00700000
00F00000
00F00000
00E00000
01E0F000
01E3FC00
01EFFE00
01D83E00
03F01F00
03C00F00
03800F00
07800F00
07800F00
07000F00
0F000F00
0F000F00
0F001E00
0E001E00
1E001E00
1E003C00
1C003C00
3C007800
3C007800
3800F000
3800E000
0001E000
0001C000
00038000
00070000
000E0000
001C0000
00780000
00E00000
00C00000
ENDCHAR

STARTCHAR afii10100
ENCODING 243
SWIDTH 448 0
DWIDTH 22 0
BBX 27 33 -2 0
BITMAP
00001E00
00003E00
00003C00
00007800
00007000
00006000
0000C000
00000000
00000000
00000000
00000000
01FFFF80
01FFFF80
007C0380
00780180
00780100
00700000
00700000
00F00000
00F00000
00E00000
00E00000
01E00000
01E00000
01C00000
03C00000
03C00000
03C00000
03800000
07800000
07800000
1FE00000
3FE00000
ENDCHAR

STARTCHAR afii10101
ENCODING 244
SWIDTH 406 0
DWIDTH 20 0
BBX 22 23 1 -1
BITMAP
000F00
007FE0
00F070
01C010
038000
070000
0F0000
1E0000
1E0000
3C0000
3C0000
3FFE00
780000
780000
780000
780000
780200
780700
780F00
3C0F00
1E0E00
0FFC00
03E000
ENDCHAR

STARTCHAR afii10102
ENCODING 245
SWIDTH 333 0
DWIDTH 17 0
BBX 18 23 0 -1
BITMAP
007C00
01FF00
038F00
030780
070700
070000
078000
078000
03C000
03E000
03F000
01F000
00F800
007800
007C00
003C00
001C00
301C00
781C00
7C1800
3C3000
3FE000
0F8000
ENDCHAR

STARTCHAR afii10103
ENCODING 246
SWIDTH 271 0
DWIDTH 14 0
BBX 17 36 0 -1
BITMAP
000E00
001F00
001F00
001F00
000E00
000000
000000
000000
000000
000000
000000
000000
000000
01E000
03F000
07F000
0CF000
18F000
10F000
31E000
01E000
01E000
03C000
03C000
03C000
078000
078000
078000
0F0000
0F0800
0F1800
1E3000
1E6000
1FC000
1F8000
0F0000
ENDCHAR

STARTCHAR afii10104
ENCODING 247
SWIDTH 271 0
DWIDTH 14 0
BBX 19 32 0 -1
BITMAP
038380
07C7C0
07C7C0
07C7C0
038380
000000
000000
000000
000000
01E000
03F000
07F000
0CF000
18F000
10E000
31E000
01E000
01C000
03C000
03C000
038000
078000
078000
070000
0F0000
0F1800
0E3000
1E3000
1E6000
1FC000
1F8000
0E0000
ENDCHAR

STARTCHAR afii10105
ENCODING 248
SWIDTH 240 0
DWIDTH 12 0
BBX 24 45 -8 -10
BITMAP
00001C
00003E
00003E
00003E
00001C
000000
000000
000000
000000
000000
000000
000000
000000
0001E0
0003F0
0007F0
000CF0
0018F0
0010F0
0030E0
0001E0
0001E0
0001C0
0003C0
0003C0
0003C0
000380
000780
000780
000700
000700
000F00
000F00
000E00
001E00
001E00
001C00
001C00
003C00
003800
003800
3C7000
3C6000
3FC000
0F0000
ENDCHAR

STARTCHAR afii10106
ENCODING 249
SWIDTH 663 0
DWIDTH 33 0
BBX 36 22 -2 -1
BITMAP
00001FC000
000073C000
0001838000
0003078000
0006078000
000C070000
0008070000
00180F0000
00100F3E00
00100EFF00
00301F8780
00201F03C0
00201E03C0
00603C03C0
00403C03C0
00403803C0
00C0380780
0180380780
3F803C0F00
3F001C1E00
3E000FFC00
3C0003E000
ENDCHAR

STARTCHAR afii10107
ENCODING 250
SWIDTH 691 0
DWIDTH 35 0
BBX 33 23 1 -1
BITMAP
0FE07F0000
0FE03F0000
01E00F0000
01C00E0000
01C01E0000
03C01E0000
03801C0000
03803C0000
07803CF800
07803BFC00
07FFFE1E00
0F007C0F00
0F00780F00
0E00700F00
1E00F00F00
1E00F00F00
1C00E00F00
1C00E01E00
3C00E01E00
3C00F03C00
3800707800
78003FE000
00000F8000
ENDCHAR

STARTCHAR afii10108
ENCODING 251
SWIDTH 500 0
DWIDTH 25 0
BBX 26 35 0 0
BITMAP
01FF0000
01FE0000
003E0000
001E0000
001C0000
001C0000
003C0000
00380000
07FFFF00
00780000
00780000
00700000
00F00000
00F00000
00E0F000
01E3FC00
01EFFC00
01F83E00
01F01E00
03C01E00
03C01E00
03801C00
07803C00
07803C00
07803C00
07007800
0F007800
0F00F800
0E00F000
1E00F000
1E01E300
1C01E600
3C01FC00
3C01F800
3C01F000
ENDCHAR

STARTCHAR afii10109
ENCODING 252
SWIDTH 489 0
DWIDTH 24 0
BBX 26 33 1 0
BITMAP
0000F800
0000F800
0001F000
0001E000
0001C000
00038000
00030000
00000000
00000000
00000000
00000000
00700F00
0FE01F00
01E03F00
01E03600
01C06000
03C04000
03C0C000
0380C000
03818000
078F0000
07FC0000
071E0000
0F0F0000
0F0F0000
0E078000
1E078000
1E038000
1C03C000
3C03C000
3C01E000
3801F000
3800F800
ENDCHAR

STARTCHAR section
ENCODING 253
SWIDTH 458 0
DWIDTH 23 0
BBX 34 44 -5 -9
BITMAP
000003FC00
00000FFF00
00001C7F80
0000381F80
0000700F00
0000F00700
0001E00000
0003E00000
0003600000
0007600000
0006600000
0006700000
000E700000
000C300000
000C380000
000C380000
001C1C0000
001C1C0000
001C0C0000
001C0E0000
001C0E0000
001C0E0000
000C060000
000C070000
000E070000
000E070000
0006070000
0007070000
0007070000
0003070000
0003060000
0003860000
00038E0000
00018E0000
00018C0000
00019C0000
0001980000
0001B00000
1C01F00000
3E03E00000
3F03C00000
3FCF000000
1FFE000000
07F0000000
ENDCHAR

STARTCHAR afii10110
ENCODING 254
SWIDTH 479 0
DWIDTH 24 0
BBX 32 41 -6 -10
BITMAP
0001C020
0003E060
0003E040
0001F180
0000FF00
00007E00
00000000
00000000
00000000
000F0038
001F003C
003F803C
0067803C
0047803C
00C3801C
0083C01C
0003C01C
0003C018
0003C018
0001C030
0001E030
0001E030
0001E060
0000E040
0000F0C0
0000F180
0000F180
0000F300
00007600
00007E00
00007C00
00007800
00003000
00006000
0000C000
00018000
00070000
3C0E0000
3E3C0000
3FF00000
3FC00000
ENDCHAR

STARTCHAR afii10193
ENCODING 255
SWIDTH 531 0
DWIDTH 27 0
BBX 27 31 0 -9
BITMAP
00E00380
03F00780
07F00780
0CF00F00
18E00F00
30E00F00
21E01E00
01E01E00
01C03E00
03C03E00
03C07C00
07807C00
0780BC00
0781B800
0F017800
0F037800
0F0678C0
1E047080
1E0CF100
1E38F300
1F70FE00
1FE0FC00
0FC07800
01800000
03800000
07800000
07000000
0F000000
0E000000
1C000000
38000000
ENDCHAR
ENDFONT
